<?xml version="1.0" encoding="utf-8" standalone="no"?>
<?xml-stylesheet type="text/css" href="../css/styles.css" ?>
<!DOCTYPE svg PUBLIC "-//W3C//DTD SVG 1.1//EN" "http://www.w3.org/Graphics/SVG/1.1/DTD/svg11.dtd">
<svg version="1.1" xmlns="http://www.w3.org/2000/svg" xmlns:xlink="http://www.w3.org/1999/xlink" width="383pt" height="413pt" viewBox="0 0 383 413" xml:space="preserve" enable-background="new 0 0 383 413">
<title>Asian Population</title><script xlink:href="../js/scripts.js" />
<defs>
<g id="background" >
<rect x="0"  y="0" height="5" width="5" fill="#c8c8c8" />
<rect x="5"  y="0" height="5" width="5" fill="#f8f8f8"/>
<rect x="0"  y="5" height="5" width="5" fill="#f8f8f8"/>
<rect x="5"  y="5" height="5" width="5" fill="#c8c8c8" />
</g>
<pattern id="OvalPattern" patternUnits="userSpaceOnUse" width="10" height="10" >
<use xlink:href="#background"/>
</pattern>
</defs>
<g color-interpolation="linearRGB" transform="scale(0.41254037,0.41254037)">
<g id="us_county_2010_2">
<g transform="matrix(2.4240052 0 0 -2.4242424 464.5 500)">
<path id="feature6" fill="#ffffff" onclick="color(this.id, this.getAttribute('class'))" d="M17.393675 97.6919 L17.335197 86.22211 L18.279998 86.208193 L17.88573 64.359595 L18.486321 39.809136 L-14.404388 40.251413 L-14.223945 52.349771 L-15.386097 52.956213 L-15.955509 54.427189 L-14.595509 55.662683 L-14.956107 56.086955 L-14.277313 56.808171 L-14.860783 57.656234 L-14.165399 58.617884 L-16.005905 58.84766 L-15.770028 58.286713 L-16.339816 58.334409 L-16.518042 58.973776 L-17.313287 58.766117 L-17.403354 59.455078 L-19.120135 59.488898 L-19.41538 60.09049 L-19.56404 58.840408 L-20.463941 58.192596 L-23.241848 60.927472 L-25.629451 61.867963 L-26.354633 63.50731 L-25.655656 65.788465 L-28.60974 70.357084 L-29.64466 70.557244 L-39.087445 66.33762 L-41.488016 67.483343 L-42.31067 67.222319 L-43.211988 68.375714 L-42.823935 95.195851 L-13.901724 94.824476 L-13.848375 98.338802 L17.393675 97.6919 Z "  class="rgbDFDFDF" fill-rule="evenodd" stroke="#6E6E6E" fill-opacity="1" stroke-opacity="1"  stroke-width="0.7" stroke-linecap="round" stroke-linejoin="round" stroke-miterlimit="10" />
</g>
<g transform="matrix(2.4240052 0 0 -2.4242424 464.5 500)">
<path id="feature9" fill="#ffffff" onclick="color(this.id, this.getAttribute('class'))" d="M-42.286269 152.40047 L-42.633723 130.08621 L-77.500174 130.82305 L-77.208911 142.46182 L-83.007987 142.65138 L-82.661553 154.21081 L-71.468454 153.88759 L-71.157741 167.77298 L-73.720393 165.94637 L-78.432269 165.56134 L-80.429491 166.94293 L-81.194767 168.64629 L-81.301503 169.42318 L-80.505886 169.77254 L-81.375847 171.37345 L-81.067685 173.29294 L-73.753193 173.08622 L-73.001907 198.87018 L-68.912684 196.66542 L-64.242589 197.57636 L-60.04142 194.49279 L-58.39434 194.24453 L-58.833284 192.47409 L-57.784841 185.98858 L-56.816307 180.80262 L-55.841582 179.34368 L-55.99222 172.70228 L-54.615606 172.67075 L-53.2651 164.87475 L-53.389699 161.9435 L-54.238308 160.9013 L-53.857859 158.07665 L-49.347312 153.68552 L-43.272861 151.84712 L-42.286269 152.40047 Z "  class="rgb606060" fill-rule="evenodd" stroke="#6E6E6E" fill-opacity="1" stroke-opacity="1"  stroke-width="0.7" stroke-linecap="round" stroke-linejoin="round" stroke-miterlimit="10" />
</g>
<g transform="matrix(2.4240052 0 0 -2.4242424 464.5 500)">
<path id="feature12" fill="#ffffff" onclick="color(this.id, this.getAttribute('class'))" d="M26.340619 -52.616038 L26.502876 -57.20665 L29.342862 -58.174185 L31.834907 -57.766389 L33.91367 -59.486619 L33.891781 -61.268465 L37.643747 -65.992203 L37.509868 -69.006723 L35.056266 -71.69366 L34.966479 -73.829511 L33.044581 -75.874092 L20.127309 -75.839761 L20.123325 -68.155864 L20.004138 -58.432691 L14.376361 -58.366296 L14.405276 -46.829952 L28.48718 -46.870765 L27.170817 -47.705956 L26.340619 -52.616038 Z "  class="rgb404040" fill-rule="evenodd" stroke="#6E6E6E" fill-opacity="1" stroke-opacity="1"  stroke-width="0.7" stroke-linecap="round" stroke-linejoin="round" stroke-miterlimit="10" />
</g>
<g transform="matrix(2.4240052 0 0 -2.4242424 464.5 500)">
<path id="feature15" fill="#ffffff" onclick="color(this.id, this.getAttribute('class'))" d="M-94.99883 118.44618 L-94.853286 108.23993 L-95.014458 102.44769 L-100.73878 102.76721 L-100.68167 104.67526 L-135.39016 106.02047 L-135.21615 109.90442 L-136.03787 109.94056 L-135.57105 120.13555 L-94.99883 118.44618 Z "  class="rgb808080" fill-rule="evenodd" stroke="#6E6E6E" fill-opacity="1" stroke-opacity="1"  stroke-width="0.7" stroke-linecap="round" stroke-linejoin="round" stroke-miterlimit="10" />
</g>
<g transform="matrix(2.4240052 0 0 -2.4242424 464.5 500)">
<path id="feature18" fill="#ffffff" onclick="color(this.id, this.getAttribute('class'))" d="M-27.118465 -114.27289 L-38.727888 -114.0853 L-38.848652 -119.93694 L-48.712526 -119.80048 L-50.454148 -119.76713 L-50.358316 -113.93446 L-50.347896 -102.22377 L-50.215461 -96.381478 L-38.552691 -96.595309 L-26.98388 -96.807548 L-27.118465 -114.27289 Z "  class="rgb606060" fill-rule="evenodd" stroke="#6E6E6E" fill-opacity="1" stroke-opacity="1"  stroke-width="0.7" stroke-linecap="round" stroke-linejoin="round" stroke-miterlimit="10" />
</g>
<g transform="matrix(2.4240052 0 0 -2.4242424 464.5 500)">
<path id="feature21" fill="#ffffff" onclick="color(this.id, this.getAttribute('class'))" d="M-80.366512 -148.19159 L-80.103614 -154.01811 L-68.524798 -154.29793 L-68.896448 -171.67178 L-97.587051 -170.93291 L-98.067236 -170.92144 L-97.377791 -147.65819 L-80.366512 -148.19159 Z "  class="rgb202020" fill-rule="evenodd" stroke="#6E6E6E" fill-opacity="1" stroke-opacity="1"  stroke-width="0.7" stroke-linecap="round" stroke-linejoin="round" stroke-miterlimit="10" />
</g>
<g transform="matrix(2.4240052 0 0 -2.4242424 464.5 500)">
<path id="feature24" fill="#ffffff" onclick="color(this.id, this.getAttribute('class'))" d="M82.820613 -195.42288 L65.813032 -195.65902 L47.853763 -195.82858 L47.704852 -173.5291 L47.705073 -172.58203 L65.580866 -172.50277 L82.456499 -172.28899 L82.820613 -195.42288 Z "  class="rgbBFBFBF" fill-rule="evenodd" stroke="#6E6E6E" fill-opacity="1" stroke-opacity="1"  stroke-width="0.7" stroke-linecap="round" stroke-linejoin="round" stroke-miterlimit="10" />
</g>
<g transform="matrix(2.4240052 0 0 -2.4242424 464.5 500)">
<path id="feature27" fill="#ffffff" onclick="color(this.id, this.getAttribute('class'))" d="M-78.274838 26.349685 L-78.467252 20.52761 L-124.95583 22.119712 L-124.23175 39.472067 L-125.1225 39.508023 L-124.698 51.130282 L-118.87541 50.941254 L-95.342843 50.070571 L-77.913724 49.614977 L-78.274838 26.349685 Z "  class="rgbBFBFBF" fill-rule="evenodd" stroke="#6E6E6E" fill-opacity="1" stroke-opacity="1"  stroke-width="0.7" stroke-linecap="round" stroke-linejoin="round" stroke-miterlimit="10" />
</g>
<g transform="matrix(2.4240052 0 0 -2.4242424 464.5 500)">
<path id="feature30" fill="#ffffff" onclick="color(this.id, this.getAttribute('class'))" d="M20.092036 -102.98763 L18.657732 -101.06507 L16.48183 -100.80994 L14.935103 -101.05107 L13.731427 -102.83722 L12.559947 -103.13966 L11.515863 -101.70268 L11.180811 -93.282106 L10.287909 -93.284588 L10.268269 -87.343865 L20.073458 -87.403507 L21.772391 -87.410848 L21.783858 -88.458226 L21.795733 -102.9834 L20.092036 -102.98763 Z "  class="rgb000000" fill-rule="evenodd" stroke="#6E6E6E" fill-opacity="1" stroke-opacity="1"  stroke-width="0.7" stroke-linecap="round" stroke-linejoin="round" stroke-miterlimit="10" />
</g>
<g transform="matrix(2.4240052 0 0 -2.4242424 464.5 500)">
<path id="feature33" fill="#ffffff" onclick="color(this.id, this.getAttribute('class'))" d="M-127.19457 -169.87195 L-126.59951 -169.8919 L-127.49925 -193.21194 L-146.96552 -192.43456 L-145.97994 -169.09963 L-127.19457 -169.87195 Z "  class="rgb808080" fill-rule="evenodd" stroke="#6E6E6E" fill-opacity="1" stroke-opacity="1"  stroke-width="0.7" stroke-linecap="round" stroke-linejoin="round" stroke-miterlimit="10" />
</g>
<g transform="matrix(2.4240052 0 0 -2.4242424 464.5 500)">
<path id="feature36" fill="#ffffff" onclick="color(this.id, this.getAttribute('class'))" d="M-39.670893 -195.48391 L-49.151946 -195.31132 L-69.181502 -194.88083 L-68.657288 -171.67675 L-45.174323 -172.13796 L-39.28031 -172.23795 L-39.670893 -195.48391 Z "  class="rgb808080" fill-rule="evenodd" stroke="#6E6E6E" fill-opacity="1" stroke-opacity="1"  stroke-width="0.7" stroke-linecap="round" stroke-linejoin="round" stroke-miterlimit="10" />
</g>
<g transform="matrix(2.4240052 0 0 -2.4242424 464.5 500)">
<path id="feature39" fill="#ffffff" onclick="color(this.id, this.getAttribute('class'))" d="M-130.09128 16.497407 L-130.81394 -18.444946 L-131.08898 -24.260271 L-145.54687 -23.622325 L-144.32898 -19.507888 L-145.09224 -13.453149 L-145.83371 -13.334753 L-145.32009 -11.157285 L-145.91088 -8.8353138 L-145.19172 -8.3661031 L-145.92943 -7.5324916 L-145.67453 -2.9724819 L-146.99045 -1.2818867 L-147.73275 -1.4923007 L-149.39403 2.8424274 L-150.27126 3.1369525 L-150.15008 4.4245277 L-151.00113 4.634345 L-150.46499 5.9462095 L-150.56411 6.7870158 L-151.6648 7.2708829 L-151.44437 11.320546 L-151.98672 11.444481 L-151.45289 11.584575 L-152.13308 12.527617 L-151.52697 12.979874 L-152.2092 13.939341 L-151.72247 14.190039 L-152.35319 14.21514 L-151.87804 14.478298 L-152.79945 15.199485 L-153.27927 17.52056 L-130.09128 16.497407 Z "  class="rgbDFDFDF" fill-rule="evenodd" stroke="#6E6E6E" fill-opacity="1" stroke-opacity="1"  stroke-width="0.7" stroke-linecap="round" stroke-linejoin="round" stroke-miterlimit="10" />
</g>
<g transform="matrix(2.4240052 0 0 -2.4242424 464.5 500)">
<path id="feature42" fill="#ffffff" onclick="color(this.id, this.getAttribute('class'))" d="M-85.224189 -84.019693 L-122.60477 -82.808843 L-125.70728 -81.052652 L-125.54952 -76.834649 L-126.22696 -76.807301 L-125.73304 -65.29629 L-108.32687 -65.909828 L-85.149815 -66.6167 L-85.224189 -84.019693 Z "  class="rgbFFFFFF" fill-rule="evenodd" stroke="#6E6E6E" fill-opacity="1" stroke-opacity="1"  stroke-width="0.7" stroke-linecap="round" stroke-linejoin="round" stroke-miterlimit="10" />
</g>
<g transform="matrix(2.4240052 0 0 -2.4242424 464.5 500)">
<path id="feature45" fill="#ffffff" onclick="color(this.id, this.getAttribute('class'))" d="M5.3540938 -109.61843 L5.8302049 -120.35012 L7.766436 -120.34504 L7.5864178 -126.14696 L-4.0210763 -126.11236 L-22.478011 -125.98067 L-22.197656 -125.3948 L-21.559413 -125.73134 L-22.066233 -123.01128 L-20.08746 -121.8446 L-19.939664 -120.82088 L-18.895049 -120.98383 L-17.288996 -119.91968 L-16.708406 -120.32975 L-15.904212 -119.71995 L-15.828133 -120.22461 L-15.610985 -119.55713 L-15.043818 -119.9342 L-15.188356 -119.31353 L-13.088767 -118.43943 L-13.347862 -117.99679 L-11.139179 -116.09718 L-9.0408092 -115.79712 L-8.4158878 -115.13099 L-9.045854 -113.07854 L-7.9456418 -112.0074 L-8.5659212 -111.42383 L-6.4587807 -109.30778 L-3.7235548 -108.69009 L-0.38753919 -108.76262 L0.19837434 -108.12866 L2.6856845 -109.15786 L2.9387784 -109.989 L5.3540938 -109.61843 Z "  class="rgb000000" fill-rule="evenodd" stroke="#6E6E6E" fill-opacity="1" stroke-opacity="1"  stroke-width="0.7" stroke-linecap="round" stroke-linejoin="round" stroke-miterlimit="10" />
</g>
<g transform="matrix(2.4240052 0 0 -2.4242424 464.5 500)">
<path id="feature48" fill="#ffffff" onclick="color(this.id, this.getAttribute('class'))" d="M-15.897627 -12.380387 L-16.576455 -12.378258 L-16.610014 -18.165225 L-42.826967 -17.770667 L-42.399077 -16.303255 L-43.70594 -14.257197 L-43.66249 -12.965935 L-41.161282 -9.7321172 L-40.480438 -8.9382241 L-40.434116 -6.1539905 L-40.617081 25.563662 L-14.589982 25.036259 L-14.817241 10.778911 L-16.368059 10.431198 L-16.564144 -11.700496 L-15.897627 -12.380387 Z "  class="rgbBFBFBF" fill-rule="evenodd" stroke="#6E6E6E" fill-opacity="1" stroke-opacity="1"  stroke-width="0.7" stroke-linecap="round" stroke-linejoin="round" stroke-miterlimit="10" />
</g>
<g transform="matrix(2.4240052 0 0 -2.4242424 464.5 500)">
<path id="feature51" fill="#ffffff" onclick="color(this.id, this.getAttribute('class'))" d="M36.068861 -172.62287 L18.821129 -172.65735 L18.836799 -149.38046 L19.065267 -149.37992 L36.494802 -149.43109 L36.599944 -172.62639 L36.068861 -172.62287 Z "  class="rgb9F9F9F" fill-rule="evenodd" stroke="#6E6E6E" fill-opacity="1" stroke-opacity="1"  stroke-width="0.7" stroke-linecap="round" stroke-linejoin="round" stroke-miterlimit="10" />
</g>
<g transform="matrix(2.4240052 0 0 -2.4242424 464.5 500)">
<path id="feature54" fill="#ffffff" onclick="color(this.id, this.getAttribute('class'))" d="M-78.755844 -20.341646 L-79.068284 -42.637085 L-79.091426 -43.60829 L-108.04996 -42.651276 L-107.76837 -19.398104 L-78.755844 -20.341646 Z "  class="rgb9F9F9F" fill-rule="evenodd" stroke="#6E6E6E" fill-opacity="1" stroke-opacity="1"  stroke-width="0.7" stroke-linecap="round" stroke-linejoin="round" stroke-miterlimit="10" />
</g>
<g transform="matrix(2.4240052 0 0 -2.4242424 464.5 500)">
<path id="feature57" fill="#ffffff" onclick="color(this.id, this.getAttribute('class'))" d="M-14.623284 -58.100657 L-32.942144 -57.921541 L-35.426986 -53.839979 L-35.084224 -50.435768 L-34.381801 -49.841535 L-35.339208 -49.922702 L-36.289084 -47.665399 L-35.861366 -46.69822 L-37.927978 -45.589221 L-38.457101 -43.383885 L-40.074462 -42.642947 L-42.211842 -40.184087 L-14.667782 -40.548291 L-14.623284 -58.100657 Z "  class="rgb404040" fill-rule="evenodd" stroke="#6E6E6E" fill-opacity="1" stroke-opacity="1"  stroke-width="0.7" stroke-linecap="round" stroke-linejoin="round" stroke-miterlimit="10" />
</g>
<g transform="matrix(2.4240052 0 0 -2.4242424 464.5 500)">
<path id="feature60" fill="#ffffff" onclick="color(this.id, this.getAttribute('class'))" d="M-27.577947 -146.24235 L-28.277507 -148.05294 L-27.1966 -150.83985 L-29.688073 -151.91649 L-33.883866 -149.20073 L-37.273988 -148.68878 L-37.802471 -147.60113 L-38.488633 -148.08071 L-39.9427 -146.62889 L-40.166065 -147.07359 L-41.020425 -146.00133 L-41.319154 -146.40901 L-41.877826 -145.53765 L-44.844242 -144.30316 L-46.825172 -143.61536 L-48.148207 -141.42863 L-47.693772 -141.0887 L-48.630179 -140.75363 L-48.176565 -140.29498 L-50.503813 -137.8144 L-50.948358 -138.32717 L-51.846943 -137.82007 L-51.747166 -137.1033 L-53.099556 -137.46871 L-53.519256 -136.70154 L-56.763239 -136.21404 L-58.261378 -134.94974 L-59.298104 -135.21038 L-59.282403 -134.41324 L-60.178686 -134.7355 L-59.845854 -133.80689 L-60.467815 -134.15399 L-60.159803 -133.05088 L-62.680779 -131.57652 L-63.582473 -132.01471 L-64.205911 -131.07829 L-56.717361 -131.27563 L-23.459027 -131.75404 L-24.485598 -135.95449 L-25.246224 -136.15765 L-24.60167 -136.45113 L-25.069065 -137.92313 L-23.700682 -139.28115 L-25.023451 -141.71991 L-27.583571 -143.84995 L-28.207976 -145.05238 L-27.478197 -145.36527 L-28.063856 -146.06927 L-27.577947 -146.24235 Z "  class="rgb404040" fill-rule="evenodd" stroke="#6E6E6E" fill-opacity="1" stroke-opacity="1"  stroke-width="0.7" stroke-linecap="round" stroke-linejoin="round" stroke-miterlimit="10" />
</g>
<g transform="matrix(2.4240052 0 0 -2.4242424 464.5 500)">
<path id="feature63" fill="#ffffff" onclick="color(this.id, this.getAttribute('class'))" d="M-135.57105 120.13555 L-136.03787 109.94056 L-135.21615 109.90442 L-135.39016 106.02047 L-135.72036 98.251112 L-129.89641 97.986579 L-130.10476 92.164833 L-106.90117 91.275919 L-106.67099 97.115308 L-100.92237 96.933992 L-100.73878 102.76721 L-95.014458 102.44769 L-95.446274 85.035193 L-94.297005 84.992627 L-94.718294 73.376454 L-117.98546 74.168036 L-153.39177 75.735851 L-153.03167 76.856069 L-153.87933 76.86437 L-154.30561 77.681641 L-153.47814 78.232941 L-153.8577 78.588062 L-153.09684 78.386488 L-153.77225 79.796043 L-153.1042 80.228503 L-154.07169 80.328678 L-153.28028 80.40007 L-153.15592 82.395032 L-154.38486 83.852555 L-154.52973 87.394453 L-155.97204 89.338484 L-155.86602 90.469573 L-156.37495 90.402826 L-155.77937 90.942038 L-156.37553 93.866357 L-158.78983 96.737598 L-157.95115 97.719267 L-158.97741 99.009827 L-159.04368 100.77006 L-159.98201 101.21641 L-159.57531 104.23461 L-161.16493 106.1757 L-161.54099 112.81369 L-162.93437 114.67359 L-162.73379 116.23664 L-163.6505 117.00687 L-164.00071 119.0678 L-163.51711 119.21945 L-164.56575 119.44156 L-163.36399 120.64314 L-164.29703 120.63299 L-164.46263 121.51518 L-135.57105 120.13555 Z "  class="rgb606060" fill-rule="evenodd" stroke="#6E6E6E" fill-opacity="1" stroke-opacity="1"  stroke-width="0.7" stroke-linecap="round" stroke-linejoin="round" stroke-miterlimit="10" />
</g>
<g transform="matrix(2.4240052 0 0 -2.4242424 464.5 500)">
<path id="feature66" fill="#ffffff" onclick="color(this.id, this.getAttribute('class'))" d="M105.48725 -179.97844 L104.83324 -183.27207 L105.09943 -187.28055 L106.95109 -189.56554 L106.45983 -192.35177 L107.75547 -194.98272 L88.628879 -195.34005 L82.820613 -195.42288 L82.456499 -172.28899 L104.04431 -171.8906 L106.08206 -176.68896 L105.48725 -179.97844 Z "  class="rgb9F9F9F" fill-rule="evenodd" stroke="#6E6E6E" fill-opacity="1" stroke-opacity="1"  stroke-width="0.7" stroke-linecap="round" stroke-linejoin="round" stroke-miterlimit="10" />
</g>
<g transform="matrix(2.4240052 0 0 -2.4242424 464.5 500)">
<path id="feature69" fill="#ffffff" onclick="color(this.id, this.getAttribute('class'))" d="M-98.067236 -170.92144 L-97.587051 -170.93291 L-98.367585 -194.14365 L-118.14737 -193.55244 L-127.49925 -193.21194 L-126.59951 -169.8919 L-98.067236 -170.92144 Z "  class="rgb000000" fill-rule="evenodd" stroke="#6E6E6E" fill-opacity="1" stroke-opacity="1"  stroke-width="0.7" stroke-linecap="round" stroke-linejoin="round" stroke-miterlimit="10" />
</g>
<g transform="matrix(2.4240052 0 0 -2.4242424 464.5 500)">
<path id="feature72" fill="#ffffff" onclick="color(this.id, this.getAttribute('class'))" d="M-2.9730294 -67.877395 L-3.1447339 -79.182965 L-3.59124 -79.117593 L-5.0332395 -77.844392 L-5.5649819 -75.452551 L-6.3900099 -76.070944 L-10.554513 -75.816725 L-11.312199 -75.152724 L-15.206213 -75.632221 L-18.146365 -73.101084 L-19.861905 -72.781979 L-22.066795 -69.840044 L-24.065706 -70.148843 L-25.874615 -68.541704 L-26.49268 -69.255355 L-26.349623 -68.387416 L-27.259383 -68.336142 L-28.263694 -67.093449 L-32.653526 -62.3273 L-32.942144 -57.921541 L-14.623284 -58.100657 L-2.9416992 -58.251543 L-2.9730294 -67.877395 Z "  class="rgb404040" fill-rule="evenodd" stroke="#6E6E6E" fill-opacity="1" stroke-opacity="1"  stroke-width="0.7" stroke-linecap="round" stroke-linejoin="round" stroke-miterlimit="10" />
</g>
<g transform="matrix(2.4240052 0 0 -2.4242424 464.5 500)">
<path id="feature75" fill="#ffffff" onclick="color(this.id, this.getAttribute('class'))" d="M-128.83729 175.17699 L-129.6638 156.25461 L-128.89137 156.22218 L-129.42083 144.66671 L-163.85878 146.34715 L-163.87274 147.00949 L-162.70633 146.90022 L-164.32772 147.56006 L-163.09498 148.14339 L-163.60301 148.81271 L-162.85598 148.85092 L-163.25728 149.76437 L-162.33836 150.51885 L-163.04822 150.84421 L-162.10647 150.92834 L-162.26344 151.54617 L-161.64188 151.22962 L-162.11138 152.12108 L-161.14636 152.13571 L-161.37937 152.95926 L-160.56686 154.01763 L-161.02195 154.26045 L-160.11192 155.57036 L-161.36097 156.76013 L-160.90323 157.18675 L-162.04445 158.49526 L-161.96557 160.03881 L-162.6686 160.36882 L-162.28878 162.18907 L-163.40684 163.06069 L-162.9166 163.50701 L-163.73022 163.39264 L-162.65377 164.14591 L-164.05627 164.54598 L-163.24847 166.03471 L-163.88819 167.83308 L-163.28346 168.56173 L-164.21511 168.98031 L-163.74842 169.92063 L-164.65373 170.64728 L-164.68957 172.39593 L-165.49376 173.50011 L-165.06328 177.03996 L-128.83729 175.17699 Z "  class="rgbBFBFBF" fill-rule="evenodd" stroke="#6E6E6E" fill-opacity="1" stroke-opacity="1"  stroke-width="0.7" stroke-linecap="round" stroke-linejoin="round" stroke-miterlimit="10" />
</g>
<g transform="matrix(2.4240052 0 0 -2.4242424 464.5 500)">
<path id="feature78" fill="#ffffff" onclick="color(this.id, this.getAttribute('class'))" d="M-64.205911 -131.07829 L-63.582473 -132.01471 L-62.680779 -131.57652 L-60.159803 -133.05088 L-60.467815 -134.15399 L-59.845854 -133.80689 L-60.178686 -134.7355 L-59.282403 -134.41324 L-59.298104 -135.21038 L-58.261378 -134.94974 L-56.763239 -136.21404 L-53.519256 -136.70154 L-53.099556 -137.46871 L-51.747166 -137.1033 L-51.846943 -137.82007 L-50.948358 -138.32717 L-50.503813 -137.8144 L-48.176565 -140.29498 L-48.630179 -140.75363 L-47.693772 -141.0887 L-48.148207 -141.42863 L-46.825172 -143.61536 L-44.844242 -144.30316 L-44.879248 -154.71615 L-68.524798 -154.29793 L-80.103614 -154.01811 L-80.366512 -148.19159 L-80.155315 -142.39625 L-68.571002 -142.63644 L-68.221316 -128.20871 L-65.804445 -129.18393 L-65.389986 -130.46153 L-64.205911 -131.07829 Z "  class="rgb808080" fill-rule="evenodd" stroke="#6E6E6E" fill-opacity="1" stroke-opacity="1"  stroke-width="0.7" stroke-linecap="round" stroke-linejoin="round" stroke-miterlimit="10" />
</g>
<g transform="matrix(2.4240052 0 0 -2.4242424 464.5 500)">
<path id="feature81" fill="#ffffff" onclick="color(this.id, this.getAttribute('class'))" d="M-131.66625 -53.440909 L-131.12172 -53.457352 L-131.58391 -65.019713 L-125.73304 -65.29629 L-126.22696 -76.807301 L-125.54952 -76.834649 L-125.70728 -81.052652 L-127.01475 -79.981571 L-128.93082 -79.853137 L-131.27577 -77.882776 L-133.6811 -77.65473 L-134.38861 -75.852637 L-139.80509 -75.144815 L-140.36582 -74.35924 L-141.96095 -74.21438 L-142.62235 -70.326718 L-143.41053 -68.248026 L-144.89846 -66.939057 L-149.41431 -64.511881 L-152.70405 -63.919605 L-154.58 -60.935546 L-155.83192 -56.771937 L-159.00505 -52.190974 L-131.66625 -53.440909 Z "  class="rgbFFFFFF" fill-rule="evenodd" stroke="#6E6E6E" fill-opacity="1" stroke-opacity="1"  stroke-width="0.7" stroke-linecap="round" stroke-linejoin="round" stroke-miterlimit="10" />
</g>
<g transform="matrix(2.4240052 0 0 -2.4242424 464.5 500)">
<path id="feature84" fill="#ffffff" onclick="color(this.id, this.getAttribute('class'))" d="M19.154624 -130.98832 L19.065267 -149.37992 L18.836799 -149.38046 L1.4933968 -149.35538 L-4.2132112 -149.3499 L-4.0210763 -126.11236 L7.5864178 -126.14696 L7.5619521 -130.95706 L19.154624 -130.98832 Z "  class="rgb202020" fill-rule="evenodd" stroke="#6E6E6E" fill-opacity="1" stroke-opacity="1"  stroke-width="0.7" stroke-linecap="round" stroke-linejoin="round" stroke-miterlimit="10" />
</g>
<g transform="matrix(2.4240052 0 0 -2.4242424 464.5 500)">
<path id="feature87" fill="#ffffff" onclick="color(this.id, this.getAttribute('class'))" d="M-27.577947 -146.24235 L-15.862141 -146.35648 L-15.886468 -149.26736 L-16.09291 -172.51975 L-39.28031 -172.23795 L-45.174323 -172.13796 L-44.879248 -154.71615 L-44.844242 -144.30316 L-41.877826 -145.53765 L-41.319154 -146.40901 L-41.020425 -146.00133 L-40.166065 -147.07359 L-39.9427 -146.62889 L-38.488633 -148.08071 L-37.802471 -147.60113 L-37.273988 -148.68878 L-33.883866 -149.20073 L-29.688073 -151.91649 L-27.1966 -150.83985 L-28.277507 -148.05294 L-27.577947 -146.24235 Z "  class="rgb202020" fill-rule="evenodd" stroke="#6E6E6E" fill-opacity="1" stroke-opacity="1"  stroke-width="0.7" stroke-linecap="round" stroke-linejoin="round" stroke-miterlimit="10" />
</g>
<g transform="matrix(2.4240052 0 0 -2.4242424 464.5 500)">
<path id="feature90" fill="#ffffff" onclick="color(this.id, this.getAttribute('class'))" d="M-62.103001 -72.973624 L-62.503297 -101.99284 L-85.804973 -101.47022 L-85.224189 -84.019693 L-85.149815 -66.6167 L-79.335765 -66.783524 L-61.969064 -67.173347 L-62.103001 -72.973624 Z "  class="rgb9F9F9F" fill-rule="evenodd" stroke="#6E6E6E" fill-opacity="1" stroke-opacity="1"  stroke-width="0.7" stroke-linecap="round" stroke-linejoin="round" stroke-miterlimit="10" />
</g>
<g transform="matrix(2.4240052 0 0 -2.4242424 464.5 500)">
<path id="feature93" fill="#ffffff" onclick="color(this.id, this.getAttribute('class'))" d="M1.3748846 -172.63281 L-10.313859 -172.55699 L-16.09291 -172.51975 L-15.886468 -149.26736 L-4.2132112 -149.3499 L1.4933968 -149.35538 L1.3748846 -172.63281 Z "  class="rgb808080" fill-rule="evenodd" stroke="#6E6E6E" fill-opacity="1" stroke-opacity="1"  stroke-width="0.7" stroke-linecap="round" stroke-linejoin="round" stroke-miterlimit="10" />
</g>
<g transform="matrix(2.4240052 0 0 -2.4242424 464.5 500)">
<path id="feature96" fill="#ffffff" onclick="color(this.id, this.getAttribute('class'))" d="M-69.181502 -194.88083 L-72.102047 -194.81949 L-95.125853 -194.2661 L-98.367585 -194.14365 L-97.587051 -170.93291 L-68.896448 -171.67178 L-68.657288 -171.67675 L-69.181502 -194.88083 Z "  class="rgb404040" fill-rule="evenodd" stroke="#6E6E6E" fill-opacity="1" stroke-opacity="1"  stroke-width="0.7" stroke-linecap="round" stroke-linejoin="round" stroke-miterlimit="10" />
</g>
<g transform="matrix(2.4240052 0 0 -2.4242424 464.5 500)">
<path id="feature99" fill="#ffffff" onclick="color(this.id, this.getAttribute('class'))" d="M56.173921 14.805869 L56.00866 14.789025 L56.282742 14.863168 L56.173921 14.805869 Z M57.930563 19.132226 L57.770291 18.833993 L57.828005 18.822408 L57.930563 19.132226 L58.226084 19.237573 L58.221515 19.21666 L58.219699 19.205339 L57.80359 18.580931 L57.777791 18.566358 L57.756824 18.551566 L57.732008 18.530649 L57.50754 18.334302 L57.466914 18.046119 L58.048706 16.504333 L57.167597 15.663627 L57.761924 15.226668 L56.00236 14.807155 L55.451113 15.315764 L54.734872 15.443194 L54.654852 14.846117 L54.366355 15.360207 L54.28996 15.395953 L53.866959 15.958741 L53.716504 16.040843 L53.637337 16.008298 L53.627604 15.831056 L53.628522 15.672568 L53.134148 22.411037 L18.217254 22.431233 L18.486321 39.809136 L17.88573 64.359595 L18.279998 86.208193 L17.335197 86.22211 L17.393675 97.6919 L16.685146 112.46362 L17.122867 146.90468 L21.71138 146.64386 L23.045964 147.16349 L23.270238 145.61055 L33.124994 141.01668 L37.260102 141.27366 L37.614729 138.63372 L34.435204 138.05126 L33.831979 135.91692 L36.354992 134.16778 L42.97077 134.95093 L45.254516 132.71392 L44.364376 129.86847 L44.676692 128.5379 L49.207625 119.7635 L53.668756 121.68179 L52.227597 124.36885 L51.997022 126.2247 L52.749959 128.01142 L53.93373 128.8214 L56.41322 128.22168 L59.151851 129.59274 L59.224316 128.95601 L63.160668 129.20904 L63.567288 127.57684 L65.650001 126.7079 L65.097509 125.09768 L65.410783 122.96301 L66.760582 121.58186 L67.750264 122.08523 L67.596511 120.82448 L70.488646 121.17769 L71.818717 119.14535 L73.987202 119.4938 L74.779749 118.9112 L76.283006 34.461339 L72.322027 32.105243 L62.899247 24.48573 L61.798099 22.771565 L62.686176 21.762033 L61.405609 22.446002 L61.378251 21.668687 L59.755299 20.432342 L60.227928 19.641504 L59.311781 19.502692 L59.187961 19.446077 L58.936498 19.938536 L57.930563 19.132226 Z "  class="rgb606060" fill-rule="evenodd" stroke="#6E6E6E" fill-opacity="1" stroke-opacity="1"  stroke-width="0.7" stroke-linecap="round" stroke-linejoin="round" stroke-miterlimit="10" />
</g>
<g transform="matrix(2.4240052 0 0 -2.4242424 464.5 500)">
<path id="feature102" fill="#ffffff" onclick="color(this.id, this.getAttribute('class'))" d="M-50.358316 -113.93446 L-56.622661 -113.8481 L-56.717361 -131.27563 L-64.205911 -131.07829 L-65.389986 -130.46153 L-65.804445 -129.18393 L-68.221316 -128.20871 L-68.907809 -126.93466 L-70.801669 -126.92257 L-74.028283 -124.85071 L-75.365329 -125.04954 L-75.130654 -124.57615 L-75.716038 -124.84796 L-77.751908 -123.04424 L-79.212375 -123.00483 L-78.741513 -122.51389 L-83.296835 -119.42179 L-86.014349 -116.4668 L-88.370585 -116.82205 L-89.316746 -114.70768 L-91.485143 -114.20608 L-93.27994 -113.11631 L-94.068388 -111.724 L-97.223636 -110.42462 L-96.943427 -101.18547 L-85.804973 -101.47022 L-62.503297 -101.99284 L-50.347896 -102.22377 L-50.358316 -113.93446 Z "  class="rgbBFBFBF" fill-rule="evenodd" stroke="#6E6E6E" fill-opacity="1" stroke-opacity="1"  stroke-width="0.7" stroke-linecap="round" stroke-linejoin="round" stroke-miterlimit="10" />
</g>
<g transform="matrix(2.4240052 0 0 -2.4242424 464.5 500)">
<path id="feature105" fill="#ffffff" onclick="color(this.id, this.getAttribute('class'))" d="M32.480363 -81.657169 L32.069153 -83.269565 L33.371321 -87.936519 L30.372247 -91.489868 L32.325318 -94.041923 L31.985116 -97.530565 L32.884402 -99.85774 L31.755631 -102.4826 L32.003376 -104.89407 L32.186061 -106.61614 L30.303861 -111.15683 L30.476371 -112.67455 L27.937745 -112.54339 L26.74309 -110.83494 L24.442525 -110.2951 L22.766077 -111.05521 L20.284549 -110.68778 L20.075783 -109.44 L20.820371 -108.06009 L20.092036 -102.98763 L21.795733 -102.9834 L21.783858 -88.458226 L21.772391 -87.410848 L20.073458 -87.403507 L20.127309 -75.839761 L33.044581 -75.874092 L32.276013 -76.399849 L32.480363 -81.657169 Z "  class="rgb000000" fill-rule="evenodd" stroke="#6E6E6E" fill-opacity="1" stroke-opacity="1"  stroke-width="0.7" stroke-linecap="round" stroke-linejoin="round" stroke-miterlimit="10" />
</g>
<g transform="matrix(2.4240052 0 0 -2.4242424 464.5 500)">
<path id="feature108" fill="#ffffff" onclick="color(this.id, this.getAttribute('class'))" d="M18.821129 -172.65735 L18.649025 -172.65885 L1.3748846 -172.63281 L1.4933968 -149.35538 L18.836799 -149.38046 L18.821129 -172.65735 Z "  class="rgb606060" fill-rule="evenodd" stroke="#6E6E6E" fill-opacity="1" stroke-opacity="1"  stroke-width="0.7" stroke-linecap="round" stroke-linejoin="round" stroke-miterlimit="10" />
</g>
<g transform="matrix(2.4240052 0 0 -2.4242424 464.5 500)">
<path id="feature111" fill="#ffffff" onclick="color(this.id, this.getAttribute('class'))" d="M-38.460415 -76.236748 L-38.552691 -96.595309 L-50.215461 -96.381478 L-50.347896 -102.22377 L-62.503297 -101.99284 L-62.103001 -72.973624 L-44.210843 -73.278103 L-44.249196 -76.218312 L-38.460415 -76.236748 Z "  class="rgbDFDFDF" fill-rule="evenodd" stroke="#6E6E6E" fill-opacity="1" stroke-opacity="1"  stroke-width="0.7" stroke-linecap="round" stroke-linejoin="round" stroke-miterlimit="10" />
</g>
<g transform="matrix(2.4240052 0 0 -2.4242424 464.5 500)">
<path id="feature114" fill="#ffffff" onclick="color(this.id, this.getAttribute('class'))" d="M-81.067685 173.29294 L-81.375847 171.37345 L-80.505886 169.77254 L-81.301503 169.42318 L-81.194767 168.64629 L-80.429491 166.94293 L-78.432269 165.56134 L-73.720393 165.94637 L-71.157741 167.77298 L-71.468454 153.88759 L-82.661553 154.21081 L-83.007987 142.65138 L-94.54894 142.93618 L-129.42083 144.66671 L-128.89137 156.22218 L-129.6638 156.25461 L-128.83729 175.17699 L-81.067685 173.29294 Z "  class="rgb202020" fill-rule="evenodd" stroke="#6E6E6E" fill-opacity="1" stroke-opacity="1"  stroke-width="0.7" stroke-linecap="round" stroke-linejoin="round" stroke-miterlimit="10" />
</g>
<g transform="matrix(2.4240052 0 0 -2.4242424 464.5 500)">
<path id="feature117" fill="#ffffff" onclick="color(this.id, this.getAttribute('class'))" d="M-108.04996 -42.651276 L-108.32687 -65.909828 L-125.73304 -65.29629 L-131.58391 -65.019713 L-131.12172 -53.457352 L-131.66625 -53.440909 L-131.23907 -41.786284 L-108.04996 -42.651276 Z "  class="rgb404040" fill-rule="evenodd" stroke="#6E6E6E" fill-opacity="1" stroke-opacity="1"  stroke-width="0.7" stroke-linecap="round" stroke-linejoin="round" stroke-miterlimit="10" />
</g>
<g transform="matrix(2.4240052 0 0 -2.4242424 464.5 500)">
<path id="feature120" fill="#ffffff" onclick="color(this.id, this.getAttribute('class'))" d="M-125.70728 -81.052652 L-122.60477 -82.808843 L-120.98314 -85.547416 L-112.98635 -93.890916 L-112.33851 -96.531563 L-108.91705 -97.7574 L-109.03189 -100.74522 L-114.26513 -100.54365 L-114.54196 -106.32037 L-143.21275 -105.19343 L-142.75027 -93.688625 L-141.96095 -74.21438 L-140.36582 -74.35924 L-139.80509 -75.144815 L-134.38861 -75.852637 L-133.6811 -77.65473 L-131.27577 -77.882776 L-128.93082 -79.853137 L-127.01475 -79.981571 L-125.70728 -81.052652 Z "  class="rgb9F9F9F" fill-rule="evenodd" stroke="#6E6E6E" fill-opacity="1" stroke-opacity="1"  stroke-width="0.7" stroke-linecap="round" stroke-linejoin="round" stroke-miterlimit="10" />
</g>
<g transform="matrix(2.4240052 0 0 -2.4242424 464.5 500)">
<path id="feature123" fill="#ffffff" onclick="color(this.id, this.getAttribute('class'))" d="M-131.08898 -24.260271 L-131.23907 -41.786284 L-131.66625 -53.440909 L-159.00505 -52.190974 L-159.94683 -50.855875 L-158.95835 -48.080202 L-150.42386 -42.37169 L-146.45759 -37.102193 L-145.20571 -29.439424 L-145.54687 -23.622325 L-131.08898 -24.260271 Z "  class="rgbFFFFFF" fill-rule="evenodd" stroke="#6E6E6E" fill-opacity="1" stroke-opacity="1"  stroke-width="0.7" stroke-linecap="round" stroke-linejoin="round" stroke-miterlimit="10" />
</g>
<g transform="matrix(2.4240052 0 0 -2.4242424 464.5 500)">
<path id="feature126" fill="#ffffff" onclick="color(this.id, this.getAttribute('class'))" d="M-124.698 51.130282 L-125.1225 39.508023 L-124.23175 39.472067 L-124.95583 22.119712 L-125.08421 16.288459 L-130.09128 16.497407 L-153.27927 17.52056 L-153.91304 17.53916 L-153.3131 18.193629 L-153.97203 20.056868 L-153.08862 21.181647 L-153.30839 23.444304 L-152.72878 23.936981 L-153.12163 25.970403 L-152.55729 26.270731 L-153.07915 26.593168 L-152.43055 26.610649 L-153.37616 27.343051 L-152.90636 27.900209 L-153.53021 29.664169 L-152.97313 30.732516 L-152.46187 30.567035 L-153.06645 31.085531 L-152.19428 31.432093 L-152.33124 34.147131 L-151.7457 34.13448 L-152.07359 35.230005 L-150.9058 37.113669 L-151.33015 37.837724 L-152.65686 37.459521 L-152.63874 38.685061 L-153.1862 38.758806 L-152.6863 39.965731 L-153.93687 40.306878 L-153.75085 42.530089 L-154.5892 42.79916 L-153.25531 44.872382 L-153.72058 44.781363 L-153.99293 46.395655 L-153.50348 46.432422 L-153.897 47.315703 L-153.26491 47.577475 L-153.7171 48.265352 L-153.18866 49.550576 L-154.12 50.501004 L-153.32393 51.024238 L-154.143 52.412069 L-124.698 51.130282 Z "  class="rgb404040" fill-rule="evenodd" stroke="#6E6E6E" fill-opacity="1" stroke-opacity="1"  stroke-width="0.7" stroke-linecap="round" stroke-linejoin="round" stroke-miterlimit="10" />
</g>
<g transform="matrix(2.4240052 0 0 -2.4242424 464.5 500)">
<path id="feature129" fill="#ffffff" onclick="color(this.id, this.getAttribute('class'))" d="M18.541412 -18.253798 L18.477 -30.081103 L14.384844 -30.091265 L14.405276 -46.829952 L-3.0063711 -46.513853 L-3.1048722 -29.966299 L0.88452007 -30.016242 L0.9779703 -18.476194 L18.541412 -18.253798 Z "  class="rgbBFBFBF" fill-rule="evenodd" stroke="#6E6E6E" fill-opacity="1" stroke-opacity="1"  stroke-width="0.7" stroke-linecap="round" stroke-linejoin="round" stroke-miterlimit="10" />
</g>
<g transform="matrix(2.4240052 0 0 -2.4242424 464.5 500)">
<path id="feature132" fill="#ffffff" onclick="color(this.id, this.getAttribute('class'))" d="M-97.223636 -110.42462 L-94.068388 -111.724 L-93.27994 -113.11631 L-91.485143 -114.20608 L-91.799211 -124.68601 L-103.00497 -124.30957 L-103.45953 -124.2789 L-103.25699 -118.43708 L-126.5958 -117.58505 L-143.71197 -116.83976 L-143.21275 -105.19343 L-114.54196 -106.32037 L-114.26513 -100.54365 L-109.03189 -100.74522 L-108.91705 -97.7574 L-108.22267 -99.723042 L-106.22634 -99.693403 L-103.50369 -102.58794 L-103.32162 -103.66071 L-101.35864 -104.41965 L-99.649354 -106.15957 L-100.08233 -106.92211 L-98.144326 -107.5917 L-97.896765 -108.10478 L-99.191279 -108.31958 L-99.437502 -109.06637 L-97.78241 -109.25068 L-97.223636 -110.42462 Z "  class="rgbDFDFDF" fill-rule="evenodd" stroke="#6E6E6E" fill-opacity="1" stroke-opacity="1"  stroke-width="0.7" stroke-linecap="round" stroke-linejoin="round" stroke-miterlimit="10" />
</g>
<g transform="matrix(2.4240052 0 0 -2.4242424 464.5 500)">
<path id="feature135" fill="#ffffff" onclick="color(this.id, this.getAttribute('class'))" d="M-129.42083 144.66671 L-94.54894 142.93618 L-94.99883 118.44618 L-135.57105 120.13555 L-164.46263 121.51518 L-164.14444 122.86469 L-163.55672 123.82388 L-163.95782 124.42882 L-163.04045 123.88915 L-163.94478 124.75519 L-164.5401 124.63204 L-163.84345 125.08497 L-163.11407 124.89837 L-164.15261 125.54503 L-163.08251 127.3721 L-164.04262 127.90004 L-162.73283 128.56011 L-163.61594 129.41888 L-162.47882 129.67386 L-163.56954 130.62166 L-162.52965 131.51788 L-163.6886 131.70115 L-162.93072 132.65614 L-164.19258 134.401 L-163.11126 135.45693 L-164.40969 136.18399 L-162.92418 137.12917 L-163.90076 137.90908 L-162.48936 137.89768 L-163.49203 138.76058 L-162.68817 138.72432 L-162.51654 139.42864 L-163.66876 139.41858 L-162.61556 140.66833 L-163.4098 141.54646 L-162.57648 141.70179 L-164.06957 141.9197 L-162.64323 142.59497 L-163.39532 144.15108 L-162.31987 144.66668 L-163.45924 144.74234 L-162.91296 145.72459 L-163.77757 146.23413 L-163.85878 146.34715 L-129.42083 144.66671 Z "  class="rgbFFFFFF" fill-rule="evenodd" stroke="#6E6E6E" fill-opacity="1" stroke-opacity="1"  stroke-width="0.7" stroke-linecap="round" stroke-linejoin="round" stroke-miterlimit="10" />
</g>
<g transform="matrix(2.4240052 0 0 -2.4242424 464.5 500)">
<path id="feature138" fill="#ffffff" onclick="color(this.id, this.getAttribute('class'))" d="M64.956763 -135.05684 L70.4209 -137.76595 L72.591447 -139.8971 L73.189483 -141.37046 L72.674901 -142.68607 L74.016867 -143.74756 L74.261919 -146.72372 L75.953144 -149.24781 L65.325372 -149.3837 L65.377425 -155.13074 L53.843328 -155.19308 L53.794833 -149.42313 L42.643047 -149.44238 L42.586153 -137.83809 L48.345055 -137.81766 L48.321813 -132.01104 L57.335875 -131.99825 L58.631367 -133.03901 L64.956763 -135.05684 Z "  class="rgb9F9F9F" fill-rule="evenodd" stroke="#6E6E6E" fill-opacity="1" stroke-opacity="1"  stroke-width="0.7" stroke-linecap="round" stroke-linejoin="round" stroke-miterlimit="10" />
</g>
<g transform="matrix(2.4240052 0 0 -2.4242424 464.5 500)">
<path id="feature141" fill="#ffffff" onclick="color(this.id, this.getAttribute('class'))" d="M-117.98546 74.168036 L-118.87541 50.941254 L-124.698 51.130282 L-154.143 52.412069 L-153.13035 53.307575 L-153.75401 54.142146 L-153.19926 54.681564 L-153.84236 54.719975 L-153.37525 55.10864 L-154.21563 55.278332 L-153.38712 55.770642 L-153.61362 57.151807 L-154.17185 57.080977 L-153.54822 58.252133 L-154.01369 58.401746 L-153.57651 59.874933 L-154.10939 59.881239 L-153.51259 60.232598 L-154.09024 60.49247 L-153.20003 62.794583 L-153.91071 63.474722 L-153.09067 64.972787 L-154.24903 66.971163 L-153.27452 67.179132 L-154.06551 67.376179 L-153.29152 67.898328 L-153.74961 68.708451 L-153.27742 69.053094 L-153.87175 69.532616 L-153.37482 69.891496 L-154.69346 70.438977 L-153.8836 70.813705 L-154.19744 72.961792 L-153.59492 74.40958 L-154.34815 74.408026 L-153.39177 75.735851 L-117.98546 74.168036 Z "  class="rgbBFBFBF" fill-rule="evenodd" stroke="#6E6E6E" fill-opacity="1" stroke-opacity="1"  stroke-width="0.7" stroke-linecap="round" stroke-linejoin="round" stroke-miterlimit="10" />
</g>
<g transform="matrix(2.4240052 0 0 -2.4242424 464.5 500)">
<path id="feature144" fill="#ffffff" onclick="color(this.id, this.getAttribute('class'))" d="M-3.1447339 -79.182965 L-1.8908237 -80.528182 L0.91853574 -81.275848 L6.3049182 -86.044049 L7.867164 -88.751503 L7.6098319 -93.296606 L10.287909 -93.284588 L11.180811 -93.282106 L11.515863 -101.70268 L12.559947 -103.13966 L10.554279 -106.96424 L9.059016 -108.26861 L5.3540938 -109.61843 L2.9387784 -109.989 L2.6856845 -109.15786 L0.19837434 -108.12866 L-0.38753919 -108.76262 L-3.7235548 -108.69009 L-3.6992641 -102.85812 L-15.405439 -102.80806 L-15.365846 -96.985103 L-15.040255 -90.083126 L-13.938728 -90.082777 L-12.11292 -86.424452 L-9.1580919 -84.492885 L-10.015427 -82.352446 L-9.0928453 -81.518971 L-8.6596361 -82.037374 L-7.1660859 -81.717229 L-6.9598296 -80.9888 L-4.588497 -80.048819 L-3.9335991 -80.732498 L-3.59124 -79.117593 L-3.1447339 -79.182965 Z "  class="rgb000000" fill-rule="evenodd" stroke="#6E6E6E" fill-opacity="1" stroke-opacity="1"  stroke-width="0.7" stroke-linecap="round" stroke-linejoin="round" stroke-miterlimit="10" />
</g>
<g transform="matrix(2.4240052 0 0 -2.4242424 464.5 500)">
<path id="feature147" fill="#ffffff" onclick="color(this.id, this.getAttribute('class'))" d="M47.704852 -173.5291 L47.853763 -195.82858 L42.785382 -195.87507 L19.860111 -195.96567 L18.651265 -195.96701 L18.649025 -172.65885 L18.821129 -172.65735 L36.068861 -172.62287 L36.077782 -173.6069 L47.704852 -173.5291 Z "  class="rgb202020" fill-rule="evenodd" stroke="#6E6E6E" fill-opacity="1" stroke-opacity="1"  stroke-width="0.7" stroke-linecap="round" stroke-linejoin="round" stroke-miterlimit="10" />
</g>
<g transform="matrix(2.4240052 0 0 -2.4242424 464.5 500)">
<path id="feature150" fill="#ffffff" onclick="color(this.id, this.getAttribute('class'))" d="M-32.942144 -57.921541 L-32.653526 -62.3273 L-28.263694 -67.093449 L-30.120398 -69.940797 L-30.47377 -72.439807 L-33.774764 -75.150855 L-35.286064 -73.944174 L-38.047675 -74.613942 L-38.460415 -76.236748 L-44.249196 -76.218312 L-44.210843 -73.278103 L-62.103001 -72.973624 L-61.969064 -67.173347 L-79.335765 -66.783524 L-79.091426 -43.60829 L-79.068284 -42.637085 L-55.87322 -43.15039 L-38.457101 -43.383885 L-37.927978 -45.589221 L-35.861366 -46.69822 L-36.289084 -47.665399 L-35.339208 -49.922702 L-34.381801 -49.841535 L-35.084224 -50.435768 L-35.426986 -53.839979 L-32.942144 -57.921541 Z "  class="rgb202020" fill-rule="evenodd" stroke="#6E6E6E" fill-opacity="1" stroke-opacity="1"  stroke-width="0.7" stroke-linecap="round" stroke-linejoin="round" stroke-miterlimit="10" />
</g>
<g transform="matrix(2.4240052 0 0 -2.4242424 464.5 500)">
<path id="feature153" fill="#ffffff" onclick="color(this.id, this.getAttribute('class'))" d="M53.863041 -18.162175 L53.897055 -23.708294 L52.094353 -24.504876 L51.305325 -27.609326 L47.661087 -27.110825 L45.764179 -30.512183 L43.176344 -29.840259 L42.034766 -30.908433 L41.941735 -32.001191 L37.894561 -33.190848 L37.883659 -33.833322 L34.690802 -35.829351 L32.021692 -40.165346 L32.369131 -41.742841 L31.1235 -44.579642 L28.48718 -46.870765 L14.405276 -46.829952 L14.384844 -30.091265 L18.477 -30.081103 L18.541412 -18.253798 L18.508145 -0.79166986 L53.747265 -0.7833731 L53.863041 -18.162175 Z "  class="rgb9F9F9F" fill-rule="evenodd" stroke="#6E6E6E" fill-opacity="1" stroke-opacity="1"  stroke-width="0.7" stroke-linecap="round" stroke-linejoin="round" stroke-miterlimit="10" />
</g>
<g transform="matrix(2.4240052 0 0 -2.4242424 464.5 500)">
<path id="feature156" fill="#ffffff" onclick="color(this.id, this.getAttribute('class'))" d="M-55.517619 -4.7133555 L-55.87322 -43.15039 L-79.068284 -42.637085 L-78.755844 -20.341646 L-78.730064 -2.8031703 L-59.09922 -3.3037253 L-58.594348 -4.4942055 L-56.600312 -4.5713737 L-56.23788 -3.8903427 L-55.517619 -4.7133555 Z "  class="rgb9F9F9F" fill-rule="evenodd" stroke="#6E6E6E" fill-opacity="1" stroke-opacity="1"  stroke-width="0.7" stroke-linecap="round" stroke-linejoin="round" stroke-miterlimit="10" />
</g>
<g transform="matrix(2.4240052 0 0 -2.4242424 464.5 500)">
<path id="feature159" fill="#ffffff" onclick="color(this.id, this.getAttribute('class'))" d="M115.35648 74.11343 L115.22143 74.016586 L115.23878 74.111883 L115.35648 74.11343 Z M117.83994 118.12181 L118.50428 118.65854 L119.64887 116.99451 L120.49896 117.29008 L119.63101 115.49004 L120.34404 115.41233 L120.00479 115.03266 L121.79643 112.47847 L126.70017 113.46519 L129.42109 114.91588 L130.34839 114.79515 L129.91052 113.79521 L130.51295 113.08161 L133.63174 113.38787 L134.47786 114.06747 L135.81102 113.43732 L137.37496 113.91606 L138.69188 113.01184 L141.44334 114.06827 L142.49066 113.68269 L149.10859 114.82705 L154.4326 113.16746 L155.65699 111.39716 L155.91693 109.4402 L157.7857 108.33968 L158.60951 108.70441 L160.34859 106.89656 L162.59396 107.29747 L163.75701 108.87772 L165.74624 109.46505 L171.36164 108.43142 L173.14719 109.45797 L174.50721 108.0537 L178.51038 108.88669 L177.46745 108.51218 L173.68868 106.92268 L172.6107 107.89379 L171.49858 106.8069 L172.03716 105.10079 L171.19409 105.95215 L170.20344 105.75032 L170.18603 104.44726 L166.90371 101.56311 L159.50569 98.45393 L157.30904 96.254053 L132.34233 86.893958 L121.5915 80.026243 L110.7003 70.27727 L110.08571 98.571923 L109.07622 118.65692 L111.47353 120.79027 L115.51297 122.66305 L115.99105 122.1405 L117.21881 122.62036 L117.83994 118.12181 Z "  class="rgb808080" fill-rule="evenodd" stroke="#6E6E6E" fill-opacity="1" stroke-opacity="1"  stroke-width="0.7" stroke-linecap="round" stroke-linejoin="round" stroke-miterlimit="10" />
</g>
<g transform="matrix(2.4240052 0 0 -2.4242424 464.5 500)">
<path id="feature162" fill="#ffffff" onclick="color(this.id, this.getAttribute('class'))" d="M17.122867 146.90468 L16.685146 112.46362 L17.393675 97.6919 L-13.848375 98.338802 L-13.901724 94.824476 L-42.823935 95.195851 L-42.633723 130.08621 L-42.286269 152.40047 L-41.649962 153.05828 L-36.113034 152.74418 L-34.778158 151.9602 L-34.365494 149.28067 L-33.222282 148.80112 L-16.236996 147.17057 L-14.767389 143.74734 L-15.310313 140.57023 L-14.262005 139.61977 L-8.1379728 139.54395 L-6.8946071 140.56966 L-6.089038 139.92394 L0.19462304 141.45508 L0.76832079 142.5636 L0.44127043 144.56909 L3.0671265 145.72816 L4.5789787 145.43544 L5.6045138 146.85841 L9.7460481 147.93465 L11.849198 147.9064 L13.129844 146.62281 L17.122867 146.90468 Z "  class="rgbBFBFBF" fill-rule="evenodd" stroke="#6E6E6E" fill-opacity="1" stroke-opacity="1"  stroke-width="0.7" stroke-linecap="round" stroke-linejoin="round" stroke-miterlimit="10" />
</g>
<g transform="matrix(2.4240052 0 0 -2.4242424 464.5 500)">
<path id="feature165" fill="#ffffff" onclick="color(this.id, this.getAttribute('class'))" d="M-107.76837 -19.398104 L-108.04996 -42.651276 L-131.23907 -41.786284 L-131.08898 -24.260271 L-130.81394 -18.444946 L-107.76837 -19.398104 Z "  class="rgbFFFFFF" fill-rule="evenodd" stroke="#6E6E6E" fill-opacity="1" stroke-opacity="1"  stroke-width="0.7" stroke-linecap="round" stroke-linejoin="round" stroke-miterlimit="10" />
</g>
<g transform="matrix(2.4240052 0 0 -2.4242424 464.5 500)">
<path id="feature168" fill="#ffffff" onclick="color(this.id, this.getAttribute('class'))" d="M-78.066905 67.037389 L-77.913724 49.614977 L-95.342843 50.070571 L-94.718294 73.376454 L-94.297005 84.992627 L-95.446274 85.035193 L-95.014458 102.44769 L-94.853286 108.23993 L-78.981903 107.70408 L-80.783634 104.46463 L-81.361418 101.62746 L-80.346131 98.852933 L-77.672671 97.799275 L-78.066905 67.037389 Z "  class="rgbFFFFFF" fill-rule="evenodd" stroke="#6E6E6E" fill-opacity="1" stroke-opacity="1"  stroke-width="0.7" stroke-linecap="round" stroke-linejoin="round" stroke-miterlimit="10" />
</g>
<g transform="matrix(2.4240052 0 0 -2.4242424 464.5 500)">
<path id="feature171" fill="#ffffff" onclick="color(this.id, this.getAttribute('class'))" d="M-100.73878 102.76721 L-100.92237 96.933992 L-106.67099 97.115308 L-106.90117 91.275919 L-130.10476 92.164833 L-129.89641 97.986579 L-135.72036 98.251112 L-135.39016 106.02047 L-100.68167 104.67526 L-100.73878 102.76721 Z "  class="rgbFFFFFF" fill-rule="evenodd" stroke="#6E6E6E" fill-opacity="1" stroke-opacity="1"  stroke-width="0.7" stroke-linecap="round" stroke-linejoin="round" stroke-miterlimit="10" />
</g>
<g transform="matrix(2.4240052 0 0 -2.4242424 464.5 500)">
<path id="feature174" fill="#ffffff" onclick="color(this.id, this.getAttribute('class'))" d="M0.9779703 -18.476194 L0.88452007 -30.016242 L-3.1048722 -29.966299 L-3.0063711 -46.513853 L-2.9416992 -58.251543 L-14.623284 -58.100657 L-14.667782 -40.548291 L-14.7955 -29.822662 L-16.726277 -29.766079 L-16.610014 -18.165225 L-16.576455 -12.378258 L-15.897627 -12.380387 L1.0664679 -12.296734 L0.9779703 -18.476194 Z "  class="rgbBFBFBF" fill-rule="evenodd" stroke="#6E6E6E" fill-opacity="1" stroke-opacity="1"  stroke-width="0.7" stroke-linecap="round" stroke-linejoin="round" stroke-miterlimit="10" />
</g>
<g transform="matrix(2.4240052 0 0 -2.4242424 464.5 500)">
<path id="feature177" fill="#ffffff" onclick="color(this.id, this.getAttribute('class'))" d="M-42.633723 130.08621 L-42.823935 95.195851 L-43.211988 68.375714 L-43.257072 66.16896 L-54.782554 66.285244 L-78.066905 67.037389 L-77.672671 97.799275 L-80.346131 98.852933 L-81.361418 101.62746 L-80.783634 104.46463 L-78.981903 107.70408 L-94.853286 108.23993 L-94.99883 118.44618 L-94.54894 142.93618 L-83.007987 142.65138 L-77.208911 142.46182 L-77.500174 130.82305 L-42.633723 130.08621 Z "  class="rgb606060" fill-rule="evenodd" stroke="#6E6E6E" fill-opacity="1" stroke-opacity="1"  stroke-width="0.7" stroke-linecap="round" stroke-linejoin="round" stroke-miterlimit="10" />
</g>
<g transform="matrix(2.4240052 0 0 -2.4242424 464.5 500)">
<path id="feature180" fill="#ffffff" onclick="color(this.id, this.getAttribute('class'))" d="M-15.610985 -119.55713 L-15.828133 -120.22461 L-15.904212 -119.71995 L-16.708406 -120.32975 L-17.288996 -119.91968 L-18.895049 -120.98383 L-19.939664 -120.82088 L-20.08746 -121.8446 L-22.066233 -123.01128 L-21.559413 -125.73134 L-22.197656 -125.3948 L-22.478011 -125.98067 L-21.412674 -127.12858 L-21.405656 -128.56989 L-23.459027 -131.75404 L-56.717361 -131.27563 L-56.622661 -113.8481 L-50.358316 -113.93446 L-50.454148 -119.76713 L-48.712526 -119.80048 L-38.848652 -119.93694 L-38.727888 -114.0853 L-27.118465 -114.27289 L-21.310669 -114.3687 L-21.351792 -117.2855 L-15.596598 -117.3366 L-15.610985 -119.55713 Z "  class="rgb808080" fill-rule="evenodd" stroke="#6E6E6E" fill-opacity="1" stroke-opacity="1"  stroke-width="0.7" stroke-linecap="round" stroke-linejoin="round" stroke-miterlimit="10" />
</g>
<g transform="matrix(2.4240052 0 0 -2.4242424 464.5 500)">
<path id="feature183" fill="#ffffff" onclick="color(this.id, this.getAttribute('class'))" d="M-85.224189 -84.019693 L-85.804973 -101.47022 L-96.943427 -101.18547 L-97.223636 -110.42462 L-97.78241 -109.25068 L-99.437502 -109.06637 L-99.191279 -108.31958 L-97.896765 -108.10478 L-98.144326 -107.5917 L-100.08233 -106.92211 L-99.649354 -106.15957 L-101.35864 -104.41965 L-103.32162 -103.66071 L-103.50369 -102.58794 L-106.22634 -99.693403 L-108.22267 -99.723042 L-108.91705 -97.7574 L-112.33851 -96.531563 L-112.98635 -93.890916 L-120.98314 -85.547416 L-122.60477 -82.808843 L-85.224189 -84.019693 Z "  class="rgb9F9F9F" fill-rule="evenodd" stroke="#6E6E6E" fill-opacity="1" stroke-opacity="1"  stroke-width="0.7" stroke-linecap="round" stroke-linejoin="round" stroke-miterlimit="10" />
</g>
<g transform="matrix(2.4240052 0 0 -2.4242424 464.5 500)">
<path id="feature186" fill="#ffffff" onclick="color(this.id, this.getAttribute('class'))" d="M-68.221316 -128.20871 L-68.571002 -142.63644 L-80.155315 -142.39625 L-80.366512 -148.19159 L-97.377791 -147.65819 L-103.6796 -147.4918 L-103.00497 -124.30957 L-91.799211 -124.68601 L-91.485143 -114.20608 L-89.316746 -114.70768 L-88.370585 -116.82205 L-86.014349 -116.4668 L-83.296835 -119.42179 L-78.741513 -122.51389 L-79.212375 -123.00483 L-77.751908 -123.04424 L-75.716038 -124.84796 L-75.130654 -124.57615 L-75.365329 -125.04954 L-74.028283 -124.85071 L-70.801669 -126.92257 L-68.907809 -126.93466 L-68.221316 -128.20871 Z "  class="rgb000000" fill-rule="evenodd" stroke="#6E6E6E" fill-opacity="1" stroke-opacity="1"  stroke-width="0.7" stroke-linecap="round" stroke-linejoin="round" stroke-miterlimit="10" />
</g>
<g transform="matrix(2.4240052 0 0 -2.4242424 464.5 500)">
<path id="feature189" fill="#ffffff" onclick="color(this.id, this.getAttribute('class'))" d="M-78.730064 -2.8031703 L-78.755844 -20.341646 L-107.76837 -19.398104 L-130.81394 -18.444946 L-130.09128 16.497407 L-125.08421 16.288459 L-124.95583 22.119712 L-78.467252 20.52761 L-78.730064 -2.8031703 Z "  class="rgb808080" fill-rule="evenodd" stroke="#6E6E6E" fill-opacity="1" stroke-opacity="1"  stroke-width="0.7" stroke-linecap="round" stroke-linejoin="round" stroke-miterlimit="10" />
</g>
<g transform="matrix(2.4240052 0 0 -2.4242424 464.5 500)">
<path id="feature192" fill="#ffffff" onclick="color(this.id, this.getAttribute('class'))" d="M-79.335765 -66.783524 L-85.149815 -66.6167 L-108.32687 -65.909828 L-108.04996 -42.651276 L-79.091426 -43.60829 L-79.335765 -66.783524 Z "  class="rgbBFBFBF" fill-rule="evenodd" stroke="#6E6E6E" fill-opacity="1" stroke-opacity="1"  stroke-width="0.7" stroke-linecap="round" stroke-linejoin="round" stroke-miterlimit="10" />
</g>
<g transform="matrix(2.4240052 0 0 -2.4242424 464.5 500)">
<path id="feature195" fill="#ffffff" onclick="color(this.id, this.getAttribute('class'))" d="M-126.5958 -117.58505 L-126.82771 -123.38339 L-126.21202 -123.42957 L-127.00148 -146.61343 L-144.99621 -145.88694 L-143.97233 -122.70164 L-143.71197 -116.83976 L-126.5958 -117.58505 Z "  class="rgbFFFFFF" fill-rule="evenodd" stroke="#6E6E6E" fill-opacity="1" stroke-opacity="1"  stroke-width="0.7" stroke-linecap="round" stroke-linejoin="round" stroke-miterlimit="10" />
</g>
<g transform="matrix(2.4240052 0 0 -2.4242424 464.5 500)">
<path id="feature198" fill="#ffffff" onclick="color(this.id, this.getAttribute('class'))" d="M53.628522 15.672568 L53.747265 -0.7833731 L18.508145 -0.79166986 L18.217254 22.431233 L53.134148 22.411037 L53.628522 15.672568 Z "  class="rgb9F9F9F" fill-rule="evenodd" stroke="#6E6E6E" fill-opacity="1" stroke-opacity="1"  stroke-width="0.7" stroke-linecap="round" stroke-linejoin="round" stroke-miterlimit="10" />
</g>
<g transform="matrix(2.4240052 0 0 -2.4242424 464.5 500)">
<path id="feature201" fill="#ffffff" onclick="color(this.id, this.getAttribute('class'))" d="M18.217254 22.431233 L18.508145 -0.79166986 L18.541412 -18.253798 L0.9779703 -18.476194 L1.0664679 -12.296734 L-15.897627 -12.380387 L-16.564144 -11.700496 L-16.368059 10.431198 L-14.817241 10.778911 L-14.589982 25.036259 L-14.404388 40.251413 L18.486321 39.809136 L18.217254 22.431233 Z "  class="rgbFFFFFF" fill-rule="evenodd" stroke="#6E6E6E" fill-opacity="1" stroke-opacity="1"  stroke-width="0.7" stroke-linecap="round" stroke-linejoin="round" stroke-miterlimit="10" />
</g>
<g transform="matrix(2.4240052 0 0 -2.4242424 464.5 500)">
<path id="feature204" fill="#ffffff" onclick="color(this.id, this.getAttribute('class'))" d="M20.123325 -68.155864 L-2.9730294 -67.877395 L-2.9416992 -58.251543 L-3.0063711 -46.513853 L14.405276 -46.829952 L14.376361 -58.366296 L20.004138 -58.432691 L20.123325 -68.155864 Z "  class="rgb606060" fill-rule="evenodd" stroke="#6E6E6E" fill-opacity="1" stroke-opacity="1"  stroke-width="0.7" stroke-linecap="round" stroke-linejoin="round" stroke-miterlimit="10" />
</g>
<g transform="matrix(2.4240052 0 0 -2.4242424 464.5 500)">
<path id="feature207" fill="#ffffff" onclick="color(this.id, this.getAttribute('class'))" d="M-28.263694 -67.093449 L-27.259383 -68.336142 L-26.349623 -68.387416 L-26.49268 -69.255355 L-25.874615 -68.541704 L-24.065706 -70.148843 L-22.066795 -69.840044 L-19.861905 -72.781979 L-18.146365 -73.101084 L-15.206213 -75.632221 L-11.312199 -75.152724 L-10.554513 -75.816725 L-6.3900099 -76.070944 L-5.5649819 -75.452551 L-5.0332395 -77.844392 L-3.59124 -79.117593 L-3.9335991 -80.732498 L-4.588497 -80.048819 L-6.9598296 -80.9888 L-7.1660859 -81.717229 L-8.6596361 -82.037374 L-9.0928453 -81.518971 L-10.015427 -82.352446 L-9.1580919 -84.492885 L-12.11292 -86.424452 L-13.938728 -90.082777 L-15.040255 -90.083126 L-15.365846 -96.985103 L-26.98388 -96.807548 L-38.552691 -96.595309 L-38.460415 -76.236748 L-38.047675 -74.613942 L-35.286064 -73.944174 L-33.774764 -75.150855 L-30.47377 -72.439807 L-30.120398 -69.940797 L-28.263694 -67.093449 Z "  class="rgb404040" fill-rule="evenodd" stroke="#6E6E6E" fill-opacity="1" stroke-opacity="1"  stroke-width="0.7" stroke-linecap="round" stroke-linejoin="round" stroke-miterlimit="10" />
</g>
<g transform="matrix(2.4240052 0 0 -2.4242424 464.5 500)">
<path id="feature210" fill="#ffffff" onclick="color(this.id, this.getAttribute('class'))" d="M65.377425 -155.13074 L65.580866 -172.50277 L47.705073 -172.58203 L47.704852 -173.5291 L36.077782 -173.6069 L36.068861 -172.62287 L36.599944 -172.62639 L36.494802 -149.43109 L42.643047 -149.44238 L53.794833 -149.42313 L53.843328 -155.19308 L65.377425 -155.13074 Z "  class="rgb000000" fill-rule="evenodd" stroke="#6E6E6E" fill-opacity="1" stroke-opacity="1"  stroke-width="0.7" stroke-linecap="round" stroke-linejoin="round" stroke-miterlimit="10" />
</g>
<g transform="matrix(2.4240052 0 0 -2.4242424 464.5 500)">
<path id="feature213" fill="#ffffff" onclick="color(this.id, this.getAttribute('class'))" d="M-4.2132112 -149.3499 L-15.886468 -149.26736 L-15.862141 -146.35648 L-27.577947 -146.24235 L-28.063856 -146.06927 L-27.478197 -145.36527 L-28.207976 -145.05238 L-27.583571 -143.84995 L-25.023451 -141.71991 L-23.700682 -139.28115 L-25.069065 -137.92313 L-24.60167 -136.45113 L-25.246224 -136.15765 L-24.485598 -135.95449 L-23.459027 -131.75404 L-21.405656 -128.56989 L-21.412674 -127.12858 L-22.478011 -125.98067 L-4.0210763 -126.11236 L-4.2132112 -149.3499 Z "  class="rgb808080" fill-rule="evenodd" stroke="#6E6E6E" fill-opacity="1" stroke-opacity="1"  stroke-width="0.7" stroke-linecap="round" stroke-linejoin="round" stroke-miterlimit="10" />
</g>
<g transform="matrix(2.4240052 0 0 -2.4242424 464.5 500)">
<path id="feature216" fill="#ffffff" onclick="color(this.id, this.getAttribute('class'))" d="M-10.507661 -195.84646 L-26.184538 -195.68019 L-39.670893 -195.48391 L-39.28031 -172.23795 L-16.09291 -172.51975 L-10.313859 -172.55699 L-10.507661 -195.84646 Z "  class="rgbDFDFDF" fill-rule="evenodd" stroke="#6E6E6E" fill-opacity="1" stroke-opacity="1"  stroke-width="0.7" stroke-linecap="round" stroke-linejoin="round" stroke-miterlimit="10" />
</g>
<g transform="matrix(2.4240052 0 0 -2.4242424 464.5 500)">
<path id="feature219" fill="#ffffff" onclick="color(this.id, this.getAttribute('class'))" d="M-45.174323 -172.13796 L-68.657288 -171.67675 L-68.896448 -171.67178 L-68.524798 -154.29793 L-44.879248 -154.71615 L-45.174323 -172.13796 Z "  class="rgb606060" fill-rule="evenodd" stroke="#6E6E6E" fill-opacity="1" stroke-opacity="1"  stroke-width="0.7" stroke-linecap="round" stroke-linejoin="round" stroke-miterlimit="10" />
</g>
<g transform="matrix(2.4240052 0 0 -2.4242424 464.5 500)">
<path id="feature222" fill="#ffffff" onclick="color(this.id, this.getAttribute('class'))" d="M53.736745 -126.23037 L54.808369 -129.67863 L57.335875 -131.99825 L48.321813 -132.01104 L48.345055 -137.81766 L42.586153 -137.83809 L42.643047 -149.44238 L36.494802 -149.43109 L19.065267 -149.37992 L19.154624 -130.98832 L19.163017 -128.06892 L21.908218 -127.86165 L23.307858 -128.64131 L24.929773 -127.93021 L24.917885 -126.21549 L30.95946 -126.22347 L30.945488 -120.42448 L33.835451 -120.43196 L33.816799 -114.75923 L38.604055 -119.09626 L39.198943 -121.47354 L41.683893 -122.20037 L42.683209 -124.53619 L43.988608 -124.00664 L51.760563 -125.07847 L53.736745 -126.23037 Z "  class="rgb808080" fill-rule="evenodd" stroke="#6E6E6E" fill-opacity="1" stroke-opacity="1"  stroke-width="0.7" stroke-linecap="round" stroke-linejoin="round" stroke-miterlimit="10" />
</g>
<g transform="matrix(2.4240052 0 0 -2.4242424 464.5 500)">
<path id="feature225" fill="#ffffff" onclick="color(this.id, this.getAttribute('class'))" d="M-41.161282 -9.7321172 L-43.66249 -12.965935 L-43.70594 -14.257197 L-42.399077 -16.303255 L-42.826967 -17.770667 L-16.610014 -18.165225 L-16.726277 -29.766079 L-14.7955 -29.822662 L-14.667782 -40.548291 L-42.211842 -40.184087 L-40.074462 -42.642947 L-38.457101 -43.383885 L-55.87322 -43.15039 L-55.517619 -4.7133555 L-54.130435 -6.2146011 L-53.262449 -6.0057849 L-50.07907 -7.8919321 L-46.602476 -6.0602712 L-45.029474 -6.0104837 L-43.378192 -7.9689973 L-42.989982 -7.5769464 L-41.551431 -8.5414945 L-41.161282 -9.7321172 Z "  class="rgbDFDFDF" fill-rule="evenodd" stroke="#6E6E6E" fill-opacity="1" stroke-opacity="1"  stroke-width="0.7" stroke-linecap="round" stroke-linejoin="round" stroke-miterlimit="10" />
</g>
<g transform="matrix(2.4240052 0 0 -2.4242424 464.5 500)">
<path id="feature228" fill="#ffffff" onclick="color(this.id, this.getAttribute('class'))" d="M-94.718294 73.376454 L-95.342843 50.070571 L-118.87541 50.941254 L-117.98546 74.168036 L-94.718294 73.376454 Z "  class="rgbFFFFFF" fill-rule="evenodd" stroke="#6E6E6E" fill-opacity="1" stroke-opacity="1"  stroke-width="0.7" stroke-linecap="round" stroke-linejoin="round" stroke-miterlimit="10" />
</g>
<g transform="matrix(2.4240052 0 0 -2.4242424 464.5 500)">
<path id="feature231" fill="#ffffff" onclick="color(this.id, this.getAttribute('class'))" d="M20.123325 -68.155864 L20.127309 -75.839761 L20.073458 -87.403507 L10.268269 -87.343865 L10.287909 -93.284588 L7.6098319 -93.296606 L7.867164 -88.751503 L6.3049182 -86.044049 L0.91853574 -81.275848 L-1.8908237 -80.528182 L-3.1447339 -79.182965 L-2.9730294 -67.877395 L20.123325 -68.155864 Z "  class="rgb000000" fill-rule="evenodd" stroke="#6E6E6E" fill-opacity="1" stroke-opacity="1"  stroke-width="0.7" stroke-linecap="round" stroke-linejoin="round" stroke-miterlimit="10" />
</g>
<g transform="matrix(2.4240052 0 0 -2.4242424 464.5 500)">
<path id="feature234" fill="#ffffff" onclick="color(this.id, this.getAttribute('class'))" d="M77.202845 34.853464 L77.217316 34.915229 L77.30255 34.939506 L77.202845 34.853464 Z M109.07622 118.65692 L110.08571 98.571923 L110.7003 70.27727 L104.81562 64.430664 L103.58313 61.70376 L99.621133 57.331187 L99.909573 56.890101 L98.942807 56.665956 L91.071681 47.505435 L86.198196 44.65627 L85.264733 42.799799 L83.162182 41.179202 L83.367318 40.384053 L82.530838 40.49923 L82.197303 39.441353 L80.300637 38.880492 L76.283006 34.461339 L74.779749 118.9112 L78.561511 118.65763 L78.109929 116.81054 L78.971246 116.83283 L79.324446 114.88977 L78.742233 113.07086 L80.032849 113.59584 L79.830946 112.89483 L81.366707 113.08502 L81.973269 111.94396 L85.584079 112.76866 L84.910671 109.94724 L85.32035 108.44332 L88.800179 110.14042 L90.517037 110.22353 L91.472059 108.89145 L94.078128 110.33799 L98.748439 111.0621 L104.16045 116.25169 L106.80937 118.0828 L109.07622 118.65692 Z "  class="rgbDFDFDF" fill-rule="evenodd" stroke="#6E6E6E" fill-opacity="1" stroke-opacity="1"  stroke-width="0.7" stroke-linecap="round" stroke-linejoin="round" stroke-miterlimit="10" />
</g>
<g transform="matrix(2.4240052 0 0 -2.4242424 464.5 500)">
<path id="feature237" fill="#ffffff" onclick="color(this.id, this.getAttribute('class'))" d="M-127.00148 -146.61343 L-126.29013 -146.65309 L-127.19457 -169.87195 L-145.97994 -169.09963 L-144.99621 -145.88694 L-127.00148 -146.61343 Z "  class="rgb606060" fill-rule="evenodd" stroke="#6E6E6E" fill-opacity="1" stroke-opacity="1"  stroke-width="0.7" stroke-linecap="round" stroke-linejoin="round" stroke-miterlimit="10" />
</g>
<g transform="matrix(2.4240052 0 0 -2.4242424 464.5 500)">
<path id="feature240" fill="#ffffff" onclick="color(this.id, this.getAttribute('class'))" d="M-61.01686 25.863821 L-61.267611 -1.5423366 L-60.606749 -1.4569255 L-60.025964 -2.5843737 L-59.100666 -2.2738652 L-59.09922 -3.3037253 L-78.730064 -2.8031703 L-78.467252 20.52761 L-78.274838 26.349685 L-61.01686 25.863821 Z "  class="rgbDFDFDF" fill-rule="evenodd" stroke="#6E6E6E" fill-opacity="1" stroke-opacity="1"  stroke-width="0.7" stroke-linecap="round" stroke-linejoin="round" stroke-miterlimit="10" />
</g>
<g transform="matrix(2.4240052 0 0 -2.4242424 464.5 500)">
<path id="feature243" fill="#ffffff" onclick="color(this.id, this.getAttribute('class'))" d="M-97.377791 -147.65819 L-98.067236 -170.92144 L-126.59951 -169.8919 L-127.19457 -169.87195 L-126.29013 -146.65309 L-103.6796 -147.4918 L-97.377791 -147.65819 Z "  class="rgb404040" fill-rule="evenodd" stroke="#6E6E6E" fill-opacity="1" stroke-opacity="1"  stroke-width="0.7" stroke-linecap="round" stroke-linejoin="round" stroke-miterlimit="10" />
</g>
<g transform="matrix(2.4240052 0 0 -2.4242424 464.5 500)">
<path id="feature246" fill="#ffffff" onclick="color(this.id, this.getAttribute('class'))" d="M-103.00497 -124.30957 L-103.6796 -147.4918 L-126.29013 -146.65309 L-127.00148 -146.61343 L-126.21202 -123.42957 L-126.82771 -123.38339 L-126.5958 -117.58505 L-103.25699 -118.43708 L-103.45953 -124.2789 L-103.00497 -124.30957 Z "  class="rgb202020" fill-rule="evenodd" stroke="#6E6E6E" fill-opacity="1" stroke-opacity="1"  stroke-width="0.7" stroke-linecap="round" stroke-linejoin="round" stroke-miterlimit="10" />
</g>
<g transform="matrix(2.4240052 0 0 -2.4242424 464.5 500)">
<path id="feature249" fill="#ffffff" onclick="color(this.id, this.getAttribute('class'))" d="M18.649025 -172.65885 L18.651265 -195.96701 L-3.1525178 -195.90097 L-10.507661 -195.84646 L-10.313859 -172.55699 L1.3748846 -172.63281 L18.649025 -172.65885 Z "  class="rgb606060" fill-rule="evenodd" stroke="#6E6E6E" fill-opacity="1" stroke-opacity="1"  stroke-width="0.7" stroke-linecap="round" stroke-linejoin="round" stroke-miterlimit="10" />
</g>
<g transform="matrix(2.4240052 0 0 -2.4242424 464.5 500)">
<path id="feature252" fill="#ffffff" onclick="color(this.id, this.getAttribute('class'))" d="M20.092036 -102.98763 L20.820371 -108.06009 L20.075783 -109.44 L20.284549 -110.68778 L22.766077 -111.05521 L24.442525 -110.2951 L26.74309 -110.83494 L27.937745 -112.54339 L30.476371 -112.67455 L33.816799 -114.75923 L33.835451 -120.43196 L30.945488 -120.42448 L30.95946 -126.22347 L24.917885 -126.21549 L24.929773 -127.93021 L23.307858 -128.64131 L21.908218 -127.86165 L19.163017 -128.06892 L19.154624 -130.98832 L7.5619521 -130.95706 L7.5864178 -126.14696 L7.766436 -120.34504 L5.8302049 -120.35012 L5.3540938 -109.61843 L9.059016 -108.26861 L10.554279 -106.96424 L12.559947 -103.13966 L13.731427 -102.83722 L14.935103 -101.05107 L16.48183 -100.80994 L18.657732 -101.06507 L20.092036 -102.98763 Z "  class="rgb000000" fill-rule="evenodd" stroke="#6E6E6E" fill-opacity="1" stroke-opacity="1"  stroke-width="0.7" stroke-linecap="round" stroke-linejoin="round" stroke-miterlimit="10" />
</g>
<g transform="matrix(2.4240052 0 0 -2.4242424 464.5 500)">
<path id="feature255" fill="#ffffff" onclick="color(this.id, this.getAttribute('class'))" d="M-3.7235548 -108.69009 L-6.4587807 -109.30778 L-8.5659212 -111.42383 L-7.9456418 -112.0074 L-9.045854 -113.07854 L-8.4158878 -115.13099 L-9.0408092 -115.79712 L-11.139179 -116.09718 L-13.347862 -117.99679 L-13.088767 -118.43943 L-15.188356 -119.31353 L-15.043818 -119.9342 L-15.610985 -119.55713 L-15.596598 -117.3366 L-21.351792 -117.2855 L-21.310669 -114.3687 L-27.118465 -114.27289 L-26.98388 -96.807548 L-15.365846 -96.985103 L-15.405439 -102.80806 L-3.6992641 -102.85812 L-3.7235548 -108.69009 Z "  class="rgb202020" fill-rule="evenodd" stroke="#6E6E6E" fill-opacity="1" stroke-opacity="1"  stroke-width="0.7" stroke-linecap="round" stroke-linejoin="round" stroke-miterlimit="10" />
</g>
<g transform="matrix(2.4240052 0 0 -2.4242424 464.5 500)">
<path id="feature258" fill="#ffffff" onclick="color(this.id, this.getAttribute('class'))" d="M-14.404388 40.251413 L-14.589982 25.036259 L-40.617081 25.563662 L-40.434116 -6.1539905 L-40.480438 -8.9382241 L-41.161282 -9.7321172 L-41.551431 -8.5414945 L-42.989982 -7.5769464 L-43.378192 -7.9689973 L-45.029474 -6.0104837 L-46.602476 -6.0602712 L-50.07907 -7.8919321 L-53.262449 -6.0057849 L-54.130435 -6.2146011 L-55.517619 -4.7133555 L-56.23788 -3.8903427 L-56.600312 -4.5713737 L-58.594348 -4.4942055 L-59.09922 -3.3037253 L-59.100666 -2.2738652 L-60.025964 -2.5843737 L-60.606749 -1.4569255 L-61.267611 -1.5423366 L-61.01686 25.863821 L-55.177241 25.720534 L-54.782554 66.285244 L-43.257072 66.16896 L-43.211988 68.375714 L-42.31067 67.222319 L-41.488016 67.483343 L-39.087445 66.33762 L-29.64466 70.557244 L-28.60974 70.357084 L-25.655656 65.788465 L-26.354633 63.50731 L-25.629451 61.867963 L-23.241848 60.927472 L-20.463941 58.192596 L-19.56404 58.840408 L-19.41538 60.09049 L-19.120135 59.488898 L-17.403354 59.455078 L-17.313287 58.766117 L-16.518042 58.973776 L-16.339816 58.334409 L-15.770028 58.286713 L-16.005905 58.84766 L-14.165399 58.617884 L-14.860783 57.656234 L-14.277313 56.808171 L-14.956107 56.086955 L-14.595509 55.662683 L-15.955509 54.427189 L-15.386097 52.956213 L-14.223945 52.349771 L-14.404388 40.251413 Z "  class="rgbDFDFDF" fill-rule="evenodd" stroke="#6E6E6E" fill-opacity="1" stroke-opacity="1"  stroke-width="0.7" stroke-linecap="round" stroke-linejoin="round" stroke-miterlimit="10" />
</g>
<g transform="matrix(2.4240052 0 0 -2.4242424 464.5 500)">
<path id="feature261" fill="#ffffff" onclick="color(this.id, this.getAttribute('class'))" d="M-61.01686 25.863821 L-78.274838 26.349685 L-77.913724 49.614977 L-78.066905 67.037389 L-54.782554 66.285244 L-55.177241 25.720534 L-61.01686 25.863821 Z "  class="rgbDFDFDF" fill-rule="evenodd" stroke="#6E6E6E" fill-opacity="1" stroke-opacity="1"  stroke-width="0.7" stroke-linecap="round" stroke-linejoin="round" stroke-miterlimit="10" />
</g>
<g transform="matrix(2.4240052 0 0 -2.4242424 464.5 500)">
<path id="feature264" fill="#ffffff" onclick="color(this.id, this.getAttribute('class'))" d="M90.540397 -160.23025 L95.165921 -161.23483 L97.046418 -162.85217 L104.04431 -171.8906 L82.456499 -172.28899 L65.580866 -172.50277 L65.377425 -155.13074 L65.325372 -149.3837 L75.953144 -149.24781 L78.39913 -151.46892 L82.592055 -153.33946 L83.296742 -155.0959 L84.554096 -155.51094 L86.211873 -157.70985 L88.938774 -159.85295 L90.540397 -160.23025 Z "  class="rgb202020" fill-rule="evenodd" stroke="#6E6E6E" fill-opacity="1" stroke-opacity="1"  stroke-width="0.7" stroke-linecap="round" stroke-linejoin="round" stroke-miterlimit="10" />
</g>
</g>
</g>
</svg>
