<?xml version="1.0" encoding="utf-8" standalone="no"?>
<?xml-stylesheet type="text/css" href="../css/styles.css" ?>
<!DOCTYPE svg PUBLIC "-//W3C//DTD SVG 1.1//EN" "http://www.w3.org/Graphics/SVG/1.1/DTD/svg11.dtd">
<svg version="1.1" xmlns="http://www.w3.org/2000/svg" xmlns:xlink="http://www.w3.org/1999/xlink" width="383pt" height="446pt" viewBox="0 0 383 446" xml:space="preserve" enable-background="new 0 0 383 446">
<title>Multi-Racial Population</title><script xlink:href="../js/svgScript.js" />
<defs>
<g id="background" >
<rect x="0"  y="0" height="5" width="5" fill="#c8c8c8" />
<rect x="5"  y="0" height="5" width="5" fill="#f8f8f8"/>
<rect x="0"  y="5" height="5" width="5" fill="#f8f8f8"/>
<rect x="5"  y="5" height="5" width="5" fill="#c8c8c8" />
</g>
<pattern id="OvalPattern" patternUnits="userSpaceOnUse" width="10" height="10" >
<use xlink:href="#background"/>
</pattern>
</defs>
<g color-interpolation="linearRGB" transform="scale(0.44625,0.44625)">
<g id="us_county_2010_2">
<g transform="matrix(2.2413568 0 0 -2.2408964 429.5 500)">
<path id="feature6" fill="#ffffff" ontouchstart="color(this.id, this.getAttribute('class'))" onclick="color(this.id, this.getAttribute('class'))" d="M16.782321 94.258217 L16.725898 83.191568 L17.637491 83.17814 L17.257081 62.097479 L17.836563 38.409921 L-13.898101 38.836653 L-13.724 50.509777 L-14.845305 51.094903 L-15.394704 52.514178 L-14.082505 53.706246 L-14.430428 54.115606 L-13.775493 54.811473 L-14.338455 55.629728 L-13.667513 56.557578 L-15.443328 56.779277 L-15.215742 56.238047 L-15.765503 56.284067 L-15.937464 56.900961 L-16.704759 56.7006 L-16.791659 57.365347 L-18.448099 57.397978 L-18.732966 57.978425 L-18.876402 56.77228 L-19.744673 56.147238 L-22.424942 58.785988 L-24.728625 59.693423 L-25.428318 61.27515 L-24.753909 63.476127 L-27.604162 67.884168 L-28.602707 68.077293 L-37.713597 64.00598 L-40.029792 65.111433 L-40.823531 64.859583 L-41.693169 65.972439 L-41.318756 91.849899 L-13.413105 91.491578 L-13.361631 94.882382 L16.782321 94.258217 Z "  class="rgb404040" fill-rule="evenodd" stroke="#6E6E6E" fill-opacity="1" stroke-opacity="1"  stroke-width="0.7" stroke-linecap="round" stroke-linejoin="round" stroke-miterlimit="10" />
</g>
<g transform="matrix(2.2413568 0 0 -2.2408964 429.5 500)">
<path id="feature9" fill="#ffffff" ontouchstart="color(this.id, this.getAttribute('class'))" onclick="color(this.id, this.getAttribute('class'))" d="M-40.799988 147.04389 L-41.13523 125.51393 L-74.776192 126.22487 L-74.495166 137.45456 L-80.090416 137.63746 L-79.756158 148.7906 L-68.956475 148.47873 L-68.656683 161.87608 L-71.129262 160.11368 L-75.675525 159.74218 L-77.602549 161.07521 L-78.340927 162.71869 L-78.443911 163.46828 L-77.676259 163.80536 L-78.515642 165.35 L-78.218312 167.20202 L-71.16091 167.00258 L-70.43603 191.88028 L-66.490535 189.75301 L-61.984586 190.63193 L-57.931079 187.65675 L-56.341891 187.4172 L-56.765407 185.70899 L-55.753814 179.45143 L-54.819323 174.44776 L-53.878858 173.0401 L-54.024201 166.63213 L-52.695972 166.60171 L-51.392934 159.07972 L-51.513153 156.25149 L-52.331935 155.24593 L-51.964859 152.52056 L-47.612849 148.28377 L-41.751903 146.50999 L-40.799988 147.04389 Z "  class="rgb404040" fill-rule="evenodd" stroke="#6E6E6E" fill-opacity="1" stroke-opacity="1"  stroke-width="0.7" stroke-linecap="round" stroke-linejoin="round" stroke-miterlimit="10" />
</g>
<g transform="matrix(2.2413568 0 0 -2.2408964 429.5 500)">
<path id="feature12" fill="#ffffff" ontouchstart="color(this.id, this.getAttribute('class'))" onclick="color(this.id, this.getAttribute('class'))" d="M25.414797 -50.766686 L25.57135 -55.195946 L28.311516 -56.129474 L30.715971 -55.736012 L32.72167 -57.395778 L32.70055 -59.114996 L36.320642 -63.672704 L36.191468 -66.581269 L33.824105 -69.173766 L33.737474 -71.234545 L31.883127 -73.207264 L19.419873 -73.174139 L19.416028 -65.760317 L19.301031 -56.378894 L13.871059 -56.314833 L13.898958 -45.183969 L27.48591 -45.223348 L26.215815 -46.029183 L25.414797 -50.766686 Z "  class="rgb9F9F9F" fill-rule="evenodd" stroke="#6E6E6E" fill-opacity="1" stroke-opacity="1"  stroke-width="0.7" stroke-linecap="round" stroke-linejoin="round" stroke-miterlimit="10" />
</g>
<g transform="matrix(2.2413568 0 0 -2.2408964 429.5 500)">
<path id="feature15" fill="#ffffff" ontouchstart="color(this.id, this.getAttribute('class'))" onclick="color(this.id, this.getAttribute('class'))" d="M-91.659803 114.28302 L-91.519375 104.4355 L-91.674883 98.84685 L-97.198008 99.15514 L-97.142898 100.99613 L-130.63146 102.29405 L-130.46356 106.04149 L-131.2564 106.07636 L-130.80599 115.91301 L-91.659803 114.28302 Z "  class="rgb606060" fill-rule="evenodd" stroke="#6E6E6E" fill-opacity="1" stroke-opacity="1"  stroke-width="0.7" stroke-linecap="round" stroke-linejoin="round" stroke-miterlimit="10" />
</g>
<g transform="matrix(2.2413568 0 0 -2.2408964 429.5 500)">
<path id="feature18" fill="#ffffff" ontouchstart="color(this.id, this.getAttribute('class'))" onclick="color(this.id, this.getAttribute('class'))" d="M-26.165303 -110.25642 L-37.366677 -110.07542 L-37.483196 -115.72138 L-47.000374 -115.58972 L-48.680782 -115.55755 L-48.588318 -109.92988 L-48.578264 -98.630803 L-48.450484 -92.993854 L-37.197638 -93.200169 L-26.035449 -93.404949 L-26.165303 -110.25642 Z "  class="rgbDFDFDF" fill-rule="evenodd" stroke="#6E6E6E" fill-opacity="1" stroke-opacity="1"  stroke-width="0.7" stroke-linecap="round" stroke-linejoin="round" stroke-miterlimit="10" />
</g>
<g transform="matrix(2.2413568 0 0 -2.2408964 429.5 500)">
<path id="feature21" fill="#ffffff" ontouchstart="color(this.id, this.getAttribute('class'))" onclick="color(this.id, this.getAttribute('class'))" d="M-77.541783 -142.98294 L-77.288126 -148.60467 L-66.116283 -148.87465 L-66.47487 -165.63785 L-94.157053 -164.92494 L-94.62036 -164.91388 L-93.955148 -142.46829 L-77.541783 -142.98294 Z "  class="rgb9F9F9F" fill-rule="evenodd" stroke="#6E6E6E" fill-opacity="1" stroke-opacity="1"  stroke-width="0.7" stroke-linecap="round" stroke-linejoin="round" stroke-miterlimit="10" />
</g>
<g transform="matrix(2.2413568 0 0 -2.2408964 429.5 500)">
<path id="feature24" fill="#ffffff" ontouchstart="color(this.id, this.getAttribute('class'))" onclick="color(this.id, this.getAttribute('class'))" d="M79.909627 -188.55414 L63.49983 -188.78198 L46.171795 -188.94558 L46.028118 -167.42988 L46.028331 -166.5161 L63.275825 -166.43963 L79.558312 -166.23336 L79.909627 -188.55414 Z "  class="rgbFFFFFF" fill-rule="evenodd" stroke="#6E6E6E" fill-opacity="1" stroke-opacity="1"  stroke-width="0.7" stroke-linecap="round" stroke-linejoin="round" stroke-miterlimit="10" />
</g>
<g transform="matrix(2.2413568 0 0 -2.2408964 429.5 500)">
<path id="feature27" fill="#ffffff" ontouchstart="color(this.id, this.getAttribute('class'))" onclick="color(this.id, this.getAttribute('class'))" d="M-75.523628 25.423544 L-75.709279 19.806104 L-120.56387 21.342247 L-119.86524 38.084699 L-120.72468 38.119392 L-120.3151 49.333151 L-114.69717 49.150766 L-91.991725 48.310687 L-75.175206 47.871106 L-75.523628 25.423544 Z "  class="rgb000000" fill-rule="evenodd" stroke="#6E6E6E" fill-opacity="1" stroke-opacity="1"  stroke-width="0.7" stroke-linecap="round" stroke-linejoin="round" stroke-miterlimit="10" />
</g>
<g transform="matrix(2.2413568 0 0 -2.2408964 429.5 500)">
<path id="feature30" fill="#ffffff" ontouchstart="color(this.id, this.getAttribute('class'))" onclick="color(this.id, this.getAttribute('class'))" d="M19.385839 -99.367815 L18.001948 -97.512826 L15.902525 -97.266669 L14.410163 -97.499321 L13.248794 -99.222693 L12.118489 -99.514502 L11.111102 -98.128027 L10.787827 -90.003419 L9.9263083 -90.005814 L9.9073591 -84.273896 L19.367914 -84.331441 L21.007133 -84.338524 L21.018197 -85.349089 L21.029655 -99.36373 L19.385839 -99.367815 Z "  class="rgb000000" fill-rule="evenodd" stroke="#6E6E6E" fill-opacity="1" stroke-opacity="1"  stroke-width="0.7" stroke-linecap="round" stroke-linejoin="round" stroke-miterlimit="10" />
</g>
<g transform="matrix(2.2413568 0 0 -2.2408964 429.5 500)">
<path id="feature33" fill="#ffffff" ontouchstart="color(this.id, this.getAttribute('class'))" onclick="color(this.id, this.getAttribute('class'))" d="M-122.72393 -163.90128 L-122.14978 -163.92053 L-123.0179 -186.42092 L-141.79997 -185.67085 L-140.84902 -163.1561 L-122.72393 -163.90128 Z "  class="rgb9F9F9F" fill-rule="evenodd" stroke="#6E6E6E" fill-opacity="1" stroke-opacity="1"  stroke-width="0.7" stroke-linecap="round" stroke-linejoin="round" stroke-miterlimit="10" />
</g>
<g transform="matrix(2.2413568 0 0 -2.2408964 429.5 500)">
<path id="feature36" fill="#ffffff" ontouchstart="color(this.id, this.getAttribute('class'))" onclick="color(this.id, this.getAttribute('class'))" d="M-38.276537 -188.61303 L-47.42435 -188.4465 L-66.749905 -188.03114 L-66.244116 -165.64264 L-43.586532 -166.08764 L-37.899682 -166.18411 L-38.276537 -188.61303 Z "  class="rgbDFDFDF" fill-rule="evenodd" stroke="#6E6E6E" fill-opacity="1" stroke-opacity="1"  stroke-width="0.7" stroke-linecap="round" stroke-linejoin="round" stroke-miterlimit="10" />
</g>
<g transform="matrix(2.2413568 0 0 -2.2408964 429.5 500)">
<path id="feature39" fill="#ffffff" ontouchstart="color(this.id, this.getAttribute('class'))" onclick="color(this.id, this.getAttribute('class'))" d="M-125.51882 15.917554 L-126.21608 -17.796641 L-126.48145 -23.407569 L-140.43118 -22.792045 L-139.2561 -18.822223 L-139.99253 -12.980297 L-140.70794 -12.866062 L-140.21237 -10.765128 L-140.78239 -8.5247694 L-140.08851 -8.0720506 L-140.80029 -7.267739 L-140.55435 -2.8680048 L-141.82402 -1.2368308 L-142.54023 -1.4398492 L-144.14311 2.7425215 L-144.98951 3.0266946 L-144.87259 4.2690141 L-145.69373 4.4714567 L-145.17644 5.7372116 L-145.27207 6.5484652 L-146.33407 7.0153253 L-146.12139 10.92265 L-146.64468 11.04223 L-146.12961 11.1774 L-146.7859 12.087295 L-146.20109 12.523656 L-146.85934 13.449399 L-146.38971 13.691287 L-146.99827 13.715506 L-146.53982 13.969413 L-147.42885 14.665252 L-147.8918 16.904746 L-125.51882 15.917554 Z "  class="rgbDFDFDF" fill-rule="evenodd" stroke="#6E6E6E" fill-opacity="1" stroke-opacity="1"  stroke-width="0.7" stroke-linecap="round" stroke-linejoin="round" stroke-miterlimit="10" />
</g>
<g transform="matrix(2.2413568 0 0 -2.2408964 429.5 500)">
<path id="feature42" fill="#ffffff" ontouchstart="color(this.id, this.getAttribute('class'))" onclick="color(this.id, this.getAttribute('class'))" d="M-82.228722 -81.066562 L-118.29545 -79.898271 L-121.28891 -78.203807 L-121.13669 -74.134059 L-121.79032 -74.107672 L-121.31377 -63.00125 L-104.51939 -63.593224 L-82.156962 -64.27525 L-82.228722 -81.066562 Z "  class="rgbDFDFDF" fill-rule="evenodd" stroke="#6E6E6E" fill-opacity="1" stroke-opacity="1"  stroke-width="0.7" stroke-linecap="round" stroke-linejoin="round" stroke-miterlimit="10" />
</g>
<g transform="matrix(2.2413568 0 0 -2.2408964 429.5 500)">
<path id="feature45" fill="#ffffff" ontouchstart="color(this.id, this.getAttribute('class'))" onclick="color(this.id, this.getAttribute('class'))" d="M5.1659077 -105.76555 L5.6252844 -116.12004 L7.4934607 -116.11514 L7.3197697 -121.71313 L-3.8797432 -121.67975 L-21.687952 -121.55269 L-21.417451 -120.98741 L-20.801641 -121.31213 L-21.290647 -118.68767 L-19.381425 -117.562 L-19.238823 -116.57426 L-18.230924 -116.73148 L-16.681321 -115.70474 L-16.121138 -116.10039 L-15.345209 -115.51202 L-15.271805 -115.99894 L-15.062289 -115.35492 L-14.515057 -115.71874 L-14.654514 -115.11989 L-12.628722 -114.27651 L-12.87871 -113.84943 L-10.747658 -112.01658 L-8.7230421 -111.72707 L-8.1200855 -111.08435 L-8.7279095 -109.10405 L-7.6663678 -108.07055 L-8.2648455 -107.5075 L-6.2317669 -105.46582 L-3.592679 -104.86984 L-0.37391793 -104.93982 L0.19140186 -104.32815 L2.5912879 -105.32117 L2.835486 -106.1231 L5.1659077 -105.76555 Z "  class="rgb202020" fill-rule="evenodd" stroke="#6E6E6E" fill-opacity="1" stroke-opacity="1"  stroke-width="0.7" stroke-linecap="round" stroke-linejoin="round" stroke-miterlimit="10" />
</g>
<g transform="matrix(2.2413568 0 0 -2.2408964 429.5 500)">
<path id="feature48" fill="#ffffff" ontouchstart="color(this.id, this.getAttribute('class'))" onclick="color(this.id, this.getAttribute('class'))" d="M-15.338856 -11.94524 L-15.993824 -11.943186 L-16.026204 -17.526752 L-41.321682 -17.146062 L-40.908831 -15.730226 L-42.16976 -13.756084 L-42.127837 -12.510207 L-39.714542 -9.390052 L-39.057629 -8.6240626 L-39.012934 -5.9376895 L-39.189469 24.665149 L-14.077172 24.156283 L-14.296444 10.400053 L-15.792753 10.064562 L-15.981946 -11.289246 L-15.338856 -11.94524 Z "  class="rgb808080" fill-rule="evenodd" stroke="#6E6E6E" fill-opacity="1" stroke-opacity="1"  stroke-width="0.7" stroke-linecap="round" stroke-linejoin="round" stroke-miterlimit="10" />
</g>
<g transform="matrix(2.2413568 0 0 -2.2408964 429.5 500)">
<path id="feature51" fill="#ffffff" ontouchstart="color(this.id, this.getAttribute('class'))" onclick="color(this.id, this.getAttribute('class'))" d="M34.80111 -166.55551 L18.159602 -166.58877 L18.174722 -144.13003 L18.395159 -144.1295 L35.21208 -144.17888 L35.313526 -166.5589 L34.80111 -166.55551 Z "  class="rgb9F9F9F" fill-rule="evenodd" stroke="#6E6E6E" fill-opacity="1" stroke-opacity="1"  stroke-width="0.7" stroke-linecap="round" stroke-linejoin="round" stroke-miterlimit="10" />
</g>
<g transform="matrix(2.2413568 0 0 -2.2408964 429.5 500)">
<path id="feature54" fill="#ffffff" ontouchstart="color(this.id, this.getAttribute('class'))" onclick="color(this.id, this.getAttribute('class'))" d="M-75.987728 -19.626676 L-76.289185 -41.138474 L-76.311514 -42.075542 L-104.25221 -41.152166 L-103.98052 -18.716298 L-75.987728 -19.626676 Z "  class="rgbDFDFDF" fill-rule="evenodd" stroke="#6E6E6E" fill-opacity="1" stroke-opacity="1"  stroke-width="0.7" stroke-linecap="round" stroke-linejoin="round" stroke-miterlimit="10" />
</g>
<g transform="matrix(2.2413568 0 0 -2.2408964 429.5 500)">
<path id="feature57" fill="#ffffff" ontouchstart="color(this.id, this.getAttribute('class'))" onclick="color(this.id, this.getAttribute('class'))" d="M-14.109303 -56.058531 L-31.784291 -55.88571 L-34.181795 -51.947607 L-33.85108 -48.663048 L-33.173346 -48.089701 L-34.097102 -48.168014 L-35.013592 -45.990052 L-34.600908 -45.056867 L-36.594882 -43.986848 L-37.105408 -41.859025 L-38.665922 -41.144129 L-40.728177 -38.771694 L-14.152237 -39.123097 L-14.109303 -56.058531 Z "  class="rgb606060" fill-rule="evenodd" stroke="#6E6E6E" fill-opacity="1" stroke-opacity="1"  stroke-width="0.7" stroke-linecap="round" stroke-linejoin="round" stroke-miterlimit="10" />
</g>
<g transform="matrix(2.2413568 0 0 -2.2408964 429.5 500)">
<path id="feature60" fill="#ffffff" ontouchstart="color(this.id, this.getAttribute('class'))" onclick="color(this.id, this.getAttribute('class'))" d="M-26.608635 -141.10222 L-27.283607 -142.84916 L-26.240691 -145.53812 L-28.644594 -146.57692 L-32.692914 -143.95661 L-35.963879 -143.46265 L-36.473786 -142.41323 L-37.135832 -142.87596 L-38.538791 -141.47517 L-38.754305 -141.90423 L-39.578636 -140.86967 L-39.866865 -141.26302 L-40.4059 -140.42228 L-43.268053 -139.23118 L-45.179357 -138.56756 L-46.45589 -136.45769 L-46.017428 -136.12971 L-46.920921 -135.80641 L-46.483252 -135.36388 L-48.728701 -132.97049 L-49.157621 -133.46524 L-50.024623 -132.97596 L-49.928352 -132.28438 L-51.233208 -132.63695 L-51.638157 -131.89674 L-54.76812 -131.42638 L-56.213602 -130.20651 L-57.213889 -130.45799 L-57.19874 -129.68887 L-58.063521 -129.99981 L-57.742387 -129.10383 L-58.342487 -129.43873 L-58.045302 -128.37439 L-60.47767 -126.95186 L-61.347671 -127.37465 L-61.949197 -126.47114 L-54.723854 -126.66155 L-22.634487 -127.12314 L-23.624976 -131.17595 L-24.358867 -131.37197 L-23.736968 -131.65514 L-24.187935 -133.0754 L-22.867648 -134.38569 L-24.143925 -136.73872 L-26.614061 -138.7939 L-27.216519 -139.95406 L-26.512391 -140.25596 L-27.077466 -140.93522 L-26.608635 -141.10222 Z "  class="rgb808080" fill-rule="evenodd" stroke="#6E6E6E" fill-opacity="1" stroke-opacity="1"  stroke-width="0.7" stroke-linecap="round" stroke-linejoin="round" stroke-miterlimit="10" />
</g>
<g transform="matrix(2.2413568 0 0 -2.2408964 429.5 500)">
<path id="feature63" fill="#ffffff" ontouchstart="color(this.id, this.getAttribute('class'))" onclick="color(this.id, this.getAttribute('class'))" d="M-130.80599 115.91301 L-131.2564 106.07636 L-130.46356 106.04149 L-130.63146 102.29405 L-130.95005 94.797774 L-125.3308 94.542539 L-125.53183 88.925416 L-103.1438 88.067745 L-102.92171 93.701891 L-97.375138 93.526948 L-97.198008 99.15514 L-91.674883 98.84685 L-92.09152 82.046369 L-90.982647 82.0053 L-91.389128 70.797413 L-113.8385 71.561172 L-148.00034 73.073881 L-147.6529 74.154726 L-148.47076 74.162735 L-148.88207 74.951281 L-148.08368 75.483203 L-148.4499 75.825843 L-147.71578 75.631353 L-148.36745 76.991365 L-147.72288 77.408625 L-148.65636 77.505279 L-147.89277 77.574162 L-147.77278 79.499004 L-148.95852 80.905298 L-149.09831 84.322706 L-150.48993 86.198407 L-150.38763 87.289741 L-150.87867 87.225341 L-150.30402 87.7456 L-150.87923 90.567134 L-153.20868 93.337457 L-152.39947 94.284623 L-153.38966 95.529821 L-153.4536 97.228189 L-154.35895 97.658852 L-153.96654 100.57096 L-155.50029 102.44382 L-155.86313 108.84851 L-157.20754 110.64303 L-157.01401 112.15114 L-157.8985 112.8943 L-158.2364 114.88279 L-157.7698 115.02912 L-158.78158 115.24341 L-157.62206 116.40276 L-158.5223 116.39298 L-158.68209 117.24415 L-130.80599 115.91301 Z "  class="rgb202020" fill-rule="evenodd" stroke="#6E6E6E" fill-opacity="1" stroke-opacity="1"  stroke-width="0.7" stroke-linecap="round" stroke-linejoin="round" stroke-miterlimit="10" />
</g>
<g transform="matrix(2.2413568 0 0 -2.2408964 429.5 500)">
<path id="feature66" fill="#ffffff" ontouchstart="color(this.id, this.getAttribute('class'))" onclick="color(this.id, this.getAttribute('class'))" d="M101.77958 -173.65254 L101.14856 -176.83041 L101.40539 -180.698 L103.19197 -182.90268 L102.71797 -185.59097 L103.96807 -188.12946 L85.513744 -188.47422 L79.909627 -188.55414 L79.558312 -166.23336 L100.38736 -165.84897 L102.35348 -170.47868 L101.77958 -173.65254 Z "  class="rgbBFBFBF" fill-rule="evenodd" stroke="#6E6E6E" fill-opacity="1" stroke-opacity="1"  stroke-width="0.7" stroke-linecap="round" stroke-linejoin="round" stroke-miterlimit="10" />
</g>
<g transform="matrix(2.2413568 0 0 -2.2408964 429.5 500)">
<path id="feature69" fill="#ffffff" ontouchstart="color(this.id, this.getAttribute('class'))" onclick="color(this.id, this.getAttribute('class'))" d="M-94.62036 -164.91388 L-94.157053 -164.92494 L-94.910153 -187.31988 L-113.99471 -186.74945 L-123.0179 -186.42092 L-122.14978 -163.92053 L-94.62036 -164.91388 Z "  class="rgb404040" fill-rule="evenodd" stroke="#6E6E6E" fill-opacity="1" stroke-opacity="1"  stroke-width="0.7" stroke-linecap="round" stroke-linejoin="round" stroke-miterlimit="10" />
</g>
<g transform="matrix(2.2413568 0 0 -2.2408964 429.5 500)">
<path id="feature72" fill="#ffffff" ontouchstart="color(this.id, this.getAttribute('class'))" onclick="color(this.id, this.getAttribute('class'))" d="M-2.8685331 -65.491635 L-3.0342025 -76.399836 L-3.4650148 -76.336761 L-4.8563308 -75.108311 L-5.3693834 -72.800539 L-6.1654133 -73.397196 L-10.183542 -73.151912 L-10.914597 -72.51125 L-14.671744 -72.973894 L-17.508555 -70.531721 L-19.163797 -70.223832 L-21.291189 -67.3853 L-23.219842 -67.683246 L-24.965172 -66.132595 L-25.561513 -66.821162 L-25.423485 -65.98373 L-26.301268 -65.934258 L-27.27028 -64.735243 L-31.505817 -60.136615 L-31.784291 -55.88571 L-14.109303 -56.058531 L-2.8383041 -56.204113 L-2.8685331 -65.491635 Z "  class="rgb606060" fill-rule="evenodd" stroke="#6E6E6E" fill-opacity="1" stroke-opacity="1"  stroke-width="0.7" stroke-linecap="round" stroke-linejoin="round" stroke-miterlimit="10" />
</g>
<g transform="matrix(2.2413568 0 0 -2.2408964 429.5 500)">
<path id="feature75" fill="#ffffff" ontouchstart="color(this.id, this.getAttribute('class'))" onclick="color(this.id, this.getAttribute('class'))" d="M-124.30891 169.01985 L-125.10637 150.76256 L-124.36108 150.73127 L-124.87194 139.58196 L-158.09946 141.20333 L-158.11293 141.84239 L-156.98751 141.73696 L-158.55192 142.3736 L-157.36251 142.93643 L-157.85268 143.58223 L-157.13191 143.61909 L-157.5191 144.50044 L-156.63248 145.2284 L-157.31738 145.54232 L-156.40874 145.6235 L-156.56019 146.21961 L-155.96047 145.91419 L-156.41348 146.77432 L-155.48238 146.78843 L-155.70719 147.58303 L-154.92324 148.6042 L-155.36234 148.83849 L-154.4843 150.10236 L-155.68944 151.25031 L-155.24779 151.66194 L-156.3489 152.92445 L-156.27279 154.41375 L-156.95111 154.73216 L-156.58464 156.48843 L-157.66341 157.32942 L-157.1904 157.76005 L-157.97541 157.6497 L-156.9368 158.3765 L-158.29001 158.7625 L-157.5106 160.19891 L-158.12783 161.93407 L-157.54436 162.63711 L-158.44327 163.04097 L-157.99298 163.94824 L-158.86647 164.64935 L-158.90105 166.33654 L-159.67697 167.40191 L-159.26162 170.81734 L-124.30891 169.01985 Z "  class="rgbFFFFFF" fill-rule="evenodd" stroke="#6E6E6E" fill-opacity="1" stroke-opacity="1"  stroke-width="0.7" stroke-linecap="round" stroke-linejoin="round" stroke-miterlimit="10" />
</g>
<g transform="matrix(2.2413568 0 0 -2.2408964 429.5 500)">
<path id="feature78" fill="#ffffff" ontouchstart="color(this.id, this.getAttribute('class'))" onclick="color(this.id, this.getAttribute('class'))" d="M-61.949197 -126.47114 L-61.347671 -127.37465 L-60.47767 -126.95186 L-58.045302 -128.37439 L-58.342487 -129.43873 L-57.742387 -129.10383 L-58.063521 -129.99981 L-57.19874 -129.68887 L-57.213889 -130.45799 L-56.213602 -130.20651 L-54.76812 -131.42638 L-51.638157 -131.89674 L-51.233208 -132.63695 L-49.928352 -132.28438 L-50.024623 -132.97596 L-49.157621 -133.46524 L-48.728701 -132.97049 L-46.483252 -135.36388 L-46.920921 -135.80641 L-46.017428 -136.12971 L-46.45589 -136.45769 L-45.179357 -138.56756 L-43.268053 -139.23118 L-43.301829 -149.27818 L-66.116283 -148.87465 L-77.288126 -148.60467 L-77.541783 -142.98294 L-77.33801 -137.39129 L-66.160863 -137.62304 L-65.823468 -123.70242 L-63.491545 -124.64336 L-63.091653 -125.87605 L-61.949197 -126.47114 Z "  class="rgbFFFFFF" fill-rule="evenodd" stroke="#6E6E6E" fill-opacity="1" stroke-opacity="1"  stroke-width="0.7" stroke-linecap="round" stroke-linejoin="round" stroke-miterlimit="10" />
</g>
<g transform="matrix(2.2413568 0 0 -2.2408964 429.5 500)">
<path id="feature81" fill="#ffffff" ontouchstart="color(this.id, this.getAttribute('class'))" onclick="color(this.id, this.getAttribute('class'))" d="M-127.03843 -51.562563 L-126.51304 -51.578428 L-126.95898 -62.734395 L-121.31377 -63.00125 L-121.79032 -74.107672 L-121.13669 -74.134059 L-121.28891 -78.203807 L-122.55043 -77.170372 L-124.39915 -77.046453 L-126.66168 -75.145346 L-128.98247 -74.925315 L-129.6651 -73.186562 L-134.89121 -72.503619 L-135.43223 -71.745656 L-136.9713 -71.605887 L-137.60945 -67.854869 L-138.36993 -65.849238 L-139.80555 -64.586277 L-144.16268 -62.244412 L-147.3368 -61.672953 L-149.14681 -58.793779 L-150.35472 -54.776512 L-153.41633 -50.356561 L-127.03843 -51.562563 Z "  class="rgbFFFFFF" fill-rule="evenodd" stroke="#6E6E6E" fill-opacity="1" stroke-opacity="1"  stroke-width="0.7" stroke-linecap="round" stroke-linejoin="round" stroke-miterlimit="10" />
</g>
<g transform="matrix(2.2413568 0 0 -2.2408964 429.5 500)">
<path id="feature84" fill="#ffffff" ontouchstart="color(this.id, this.getAttribute('class'))" onclick="color(this.id, this.getAttribute('class'))" d="M18.481376 -126.38433 L18.395159 -144.1295 L18.174722 -144.13003 L1.4409068 -144.10583 L-4.0651249 -144.10054 L-3.8797432 -121.67975 L7.3197697 -121.71313 L7.296164 -126.35418 L18.481376 -126.38433 Z "  class="rgb606060" fill-rule="evenodd" stroke="#6E6E6E" fill-opacity="1" stroke-opacity="1"  stroke-width="0.7" stroke-linecap="round" stroke-linejoin="round" stroke-miterlimit="10" />
</g>
<g transform="matrix(2.2413568 0 0 -2.2408964 429.5 500)">
<path id="feature87" fill="#ffffff" ontouchstart="color(this.id, this.getAttribute('class'))" onclick="color(this.id, this.getAttribute('class'))" d="M-26.608635 -141.10222 L-15.304617 -141.21233 L-15.32809 -144.0209 L-15.527275 -166.45601 L-37.899682 -166.18411 L-43.586532 -166.08764 L-43.301829 -149.27818 L-43.268053 -139.23118 L-40.4059 -140.42228 L-39.866865 -141.26302 L-39.578636 -140.86967 L-38.754305 -141.90423 L-38.538791 -141.47517 L-37.135832 -142.87596 L-36.473786 -142.41323 L-35.963879 -143.46265 L-32.692914 -143.95661 L-28.644594 -146.57692 L-26.240691 -145.53812 L-27.283607 -142.84916 L-26.608635 -141.10222 Z "  class="rgb606060" fill-rule="evenodd" stroke="#6E6E6E" fill-opacity="1" stroke-opacity="1"  stroke-width="0.7" stroke-linecap="round" stroke-linejoin="round" stroke-miterlimit="10" />
</g>
<g transform="matrix(2.2413568 0 0 -2.2408964 429.5 500)">
<path id="feature90" fill="#ffffff" ontouchstart="color(this.id, this.getAttribute('class'))" onclick="color(this.id, this.getAttribute('class'))" d="M-59.9202 -70.408742 L-60.306426 -98.407988 L-82.789093 -97.903739 L-82.228722 -81.066562 L-82.156962 -64.27525 L-76.547265 -64.436211 L-59.790971 -64.812333 L-59.9202 -70.408742 Z "  class="rgbBFBFBF" fill-rule="evenodd" stroke="#6E6E6E" fill-opacity="1" stroke-opacity="1"  stroke-width="0.7" stroke-linecap="round" stroke-linejoin="round" stroke-miterlimit="10" />
</g>
<g transform="matrix(2.2413568 0 0 -2.2408964 429.5 500)">
<path id="feature93" fill="#ffffff" ontouchstart="color(this.id, this.getAttribute('class'))" onclick="color(this.id, this.getAttribute('class'))" d="M1.3265601 -166.56509 L-9.9513466 -166.49194 L-15.527275 -166.45601 L-15.32809 -144.0209 L-4.0651249 -144.10054 L1.4409068 -144.10583 L1.3265601 -166.56509 Z "  class="rgb808080" fill-rule="evenodd" stroke="#6E6E6E" fill-opacity="1" stroke-opacity="1"  stroke-width="0.7" stroke-linecap="round" stroke-linejoin="round" stroke-miterlimit="10" />
</g>
<g transform="matrix(2.2413568 0 0 -2.2408964 429.5 500)">
<path id="feature96" fill="#ffffff" ontouchstart="color(this.id, this.getAttribute('class'))" onclick="color(this.id, this.getAttribute('class'))" d="M-66.749905 -188.03114 L-69.567798 -187.97196 L-91.782362 -187.43802 L-94.910153 -187.31988 L-94.157053 -164.92494 L-66.47487 -165.63785 L-66.244116 -165.64264 L-66.749905 -188.03114 Z "  class="rgbDFDFDF" fill-rule="evenodd" stroke="#6E6E6E" fill-opacity="1" stroke-opacity="1"  stroke-width="0.7" stroke-linecap="round" stroke-linejoin="round" stroke-miterlimit="10" />
</g>
<g transform="matrix(2.2413568 0 0 -2.2408964 429.5 500)">
<path id="feature99" fill="#ffffff" ontouchstart="color(this.id, this.getAttribute('class'))" onclick="color(this.id, this.getAttribute('class'))" d="M54.199516 14.285471 L54.040063 14.269219 L54.304511 14.340756 L54.199516 14.285471 Z M55.894415 18.459765 L55.739777 18.172015 L55.795461 18.160836 L55.894415 18.459765 L56.179549 18.561409 L56.17514 18.541232 L56.173389 18.530309 L55.771905 17.927847 L55.747012 17.913786 L55.726782 17.899514 L55.702839 17.879332 L55.486261 17.689887 L55.447062 17.411833 L56.008406 15.924237 L55.158266 15.113081 L55.731703 14.69148 L54.033984 14.286712 L53.502113 14.777444 L52.811046 14.900395 L52.733839 14.324304 L52.455482 14.820325 L52.381772 14.854815 L51.973639 15.397822 L51.828472 15.477039 L51.752087 15.445637 L51.742697 15.274625 L51.743582 15.121708 L51.266585 21.623332 L17.576953 21.642818 L17.836563 38.409921 L17.257081 62.097479 L17.637491 83.17814 L16.725898 83.191568 L16.782321 94.258217 L16.098695 108.51074 L16.521031 141.74126 L20.948266 141.48961 L22.235942 141.99097 L22.452333 140.49262 L31.960714 136.06022 L35.950481 136.30816 L36.292643 133.76101 L33.224873 133.19902 L32.64285 131.13971 L35.077183 129.45204 L41.46043 130.20766 L43.663907 128.04928 L42.805053 125.30384 L43.106392 124.02004 L47.478072 115.55404 L51.782402 117.4049 L50.391897 119.99753 L50.169426 121.78815 L50.895899 123.51206 L52.038063 124.29358 L54.430404 123.71493 L57.072777 125.03781 L57.142695 124.42346 L60.940691 124.66759 L61.33302 123.09276 L63.342529 122.25436 L62.809457 120.70074 L63.11172 118.64109 L64.414076 117.30849 L65.368972 117.79417 L65.220624 116.57773 L68.011105 116.91852 L69.294427 114.95762 L71.386694 115.29382 L72.151385 114.7317 L73.601805 33.250089 L69.780047 30.976805 L60.688459 23.625104 L59.626014 21.971188 L60.482877 20.997139 L59.24732 21.657068 L59.220923 20.907074 L57.655015 19.714185 L58.111031 18.951143 L57.227086 18.81721 L57.107618 18.762584 L56.864993 19.237735 L55.894415 18.459765 Z "  class="rgb202020" fill-rule="evenodd" stroke="#6E6E6E" fill-opacity="1" stroke-opacity="1"  stroke-width="0.7" stroke-linecap="round" stroke-linejoin="round" stroke-miterlimit="10" />
</g>
<g transform="matrix(2.2413568 0 0 -2.2408964 429.5 500)">
<path id="feature102" fill="#ffffff" ontouchstart="color(this.id, this.getAttribute('class'))" onclick="color(this.id, this.getAttribute('class'))" d="M-48.588318 -109.92988 L-54.632483 -109.84656 L-54.723854 -126.66155 L-61.949197 -126.47114 L-63.091653 -125.87605 L-63.491545 -124.64336 L-65.823468 -123.70242 L-66.485832 -122.47315 L-68.313126 -122.46149 L-71.426331 -120.46245 L-72.716383 -120.65429 L-72.489956 -120.19754 L-73.054765 -120.45979 L-75.019078 -118.71947 L-76.428212 -118.68144 L-75.9739 -118.20776 L-80.369111 -115.22434 L-82.99111 -112.37322 L-85.264528 -112.71598 L-86.177434 -110.67593 L-88.269615 -110.19195 L-90.001329 -109.14049 L-90.762065 -107.79712 L-93.806412 -106.54341 L-93.536051 -97.628993 L-82.789093 -97.903739 L-60.306426 -98.407988 L-48.578264 -98.630803 L-48.588318 -109.92988 Z "  class="rgbDFDFDF" fill-rule="evenodd" stroke="#6E6E6E" fill-opacity="1" stroke-opacity="1"  stroke-width="0.7" stroke-linecap="round" stroke-linejoin="round" stroke-miterlimit="10" />
</g>
<g transform="matrix(2.2413568 0 0 -2.2408964 429.5 500)">
<path id="feature105" fill="#ffffff" ontouchstart="color(this.id, this.getAttribute('class'))" onclick="color(this.id, this.getAttribute('class'))" d="M31.33874 -78.787077 L30.941984 -80.342799 L32.198383 -84.84572 L29.30472 -88.274174 L31.189145 -90.73653 L30.860901 -94.102553 L31.728578 -96.347932 L30.639481 -98.880532 L30.878518 -101.20724 L31.054783 -102.86878 L29.238738 -107.24988 L29.405185 -108.71426 L26.955787 -108.58771 L25.803122 -106.93931 L23.583417 -106.41844 L21.965893 -107.15183 L19.571586 -106.79732 L19.370158 -105.5934 L20.088575 -104.26198 L19.385839 -99.367815 L21.029655 -99.36373 L21.018197 -85.349089 L21.007133 -84.338524 L19.367914 -84.331441 L19.419873 -73.174139 L31.883127 -73.207264 L31.141573 -73.714541 L31.33874 -78.787077 Z "  class="rgb202020" fill-rule="evenodd" stroke="#6E6E6E" fill-opacity="1" stroke-opacity="1"  stroke-width="0.7" stroke-linecap="round" stroke-linejoin="round" stroke-miterlimit="10" />
</g>
<g transform="matrix(2.2413568 0 0 -2.2408964 429.5 500)">
<path id="feature108" fill="#ffffff" ontouchstart="color(this.id, this.getAttribute('class'))" onclick="color(this.id, this.getAttribute('class'))" d="M18.159602 -166.58877 L17.993548 -166.59023 L1.3265601 -166.56509 L1.4409068 -144.10583 L18.174722 -144.13003 L18.159602 -166.58877 Z "  class="rgb9F9F9F" fill-rule="evenodd" stroke="#6E6E6E" fill-opacity="1" stroke-opacity="1"  stroke-width="0.7" stroke-linecap="round" stroke-linejoin="round" stroke-miterlimit="10" />
</g>
<g transform="matrix(2.2413568 0 0 -2.2408964 429.5 500)">
<path id="feature111" fill="#ffffff" ontouchstart="color(this.id, this.getAttribute('class'))" onclick="color(this.id, this.getAttribute('class'))" d="M-37.108605 -73.557173 L-37.197638 -93.200169 L-48.450484 -92.993854 L-48.578264 -98.630803 L-60.306426 -98.407988 L-59.9202 -70.408742 L-42.656917 -70.702519 L-42.693922 -73.539385 L-37.108605 -73.557173 Z "  class="rgbFFFFFF" fill-rule="evenodd" stroke="#6E6E6E" fill-opacity="1" stroke-opacity="1"  stroke-width="0.7" stroke-linecap="round" stroke-linejoin="round" stroke-miterlimit="10" />
</g>
<g transform="matrix(2.2413568 0 0 -2.2408964 429.5 500)">
<path id="feature114" fill="#ffffff" ontouchstart="color(this.id, this.getAttribute('class'))" onclick="color(this.id, this.getAttribute('class'))" d="M-78.218312 167.20202 L-78.515642 165.35 L-77.676259 163.80536 L-78.443911 163.46828 L-78.340927 162.71869 L-77.602549 161.07521 L-75.675525 159.74218 L-71.129262 160.11368 L-68.656683 161.87608 L-68.956475 148.47873 L-79.756158 148.7906 L-80.090416 137.63746 L-91.225727 137.91225 L-124.87194 139.58196 L-124.36108 150.73127 L-125.10637 150.76256 L-124.30891 169.01985 L-78.218312 167.20202 Z "  class="rgb9F9F9F" fill-rule="evenodd" stroke="#6E6E6E" fill-opacity="1" stroke-opacity="1"  stroke-width="0.7" stroke-linecap="round" stroke-linejoin="round" stroke-miterlimit="10" />
</g>
<g transform="matrix(2.2413568 0 0 -2.2408964 429.5 500)">
<path id="feature117" fill="#ffffff" ontouchstart="color(this.id, this.getAttribute('class'))" onclick="color(this.id, this.getAttribute('class'))" d="M-104.25221 -41.152166 L-104.51939 -63.593224 L-121.31377 -63.00125 L-126.95898 -62.734395 L-126.51304 -51.578428 L-127.03843 -51.562563 L-126.62627 -40.317576 L-104.25221 -41.152166 Z "  class="rgb606060" fill-rule="evenodd" stroke="#6E6E6E" fill-opacity="1" stroke-opacity="1"  stroke-width="0.7" stroke-linecap="round" stroke-linejoin="round" stroke-miterlimit="10" />
</g>
<g transform="matrix(2.2413568 0 0 -2.2408964 429.5 500)">
<path id="feature120" fill="#ffffff" ontouchstart="color(this.id, this.getAttribute('class'))" onclick="color(this.id, this.getAttribute('class'))" d="M-121.28891 -78.203807 L-118.29545 -79.898271 L-116.73081 -82.540589 L-109.01509 -90.590831 L-108.39003 -93.138664 L-105.08883 -94.321415 L-105.19963 -97.204215 L-110.24893 -97.009733 L-110.51603 -102.58341 L-138.1791 -101.49608 L-137.73287 -90.395649 L-136.9713 -71.605887 L-135.43223 -71.745656 L-134.89121 -72.503619 L-129.6651 -73.186562 L-128.98247 -74.925315 L-126.66168 -75.145346 L-124.39915 -77.046453 L-122.55043 -77.170372 L-121.28891 -78.203807 Z "  class="rgbFFFFFF" fill-rule="evenodd" stroke="#6E6E6E" fill-opacity="1" stroke-opacity="1"  stroke-width="0.7" stroke-linecap="round" stroke-linejoin="round" stroke-miterlimit="10" />
</g>
<g transform="matrix(2.2413568 0 0 -2.2408964 429.5 500)">
<path id="feature123" fill="#ffffff" ontouchstart="color(this.id, this.getAttribute('class'))" onclick="color(this.id, this.getAttribute('class'))" d="M-126.48145 -23.407569 L-126.62627 -40.317576 L-127.03843 -51.562563 L-153.41633 -50.356561 L-154.32501 -49.068389 L-153.37127 -46.390275 L-145.13675 -40.882406 L-141.30989 -35.798122 L-140.10201 -28.404685 L-140.43118 -22.792045 L-126.48145 -23.407569 Z "  class="rgbBFBFBF" fill-rule="evenodd" stroke="#6E6E6E" fill-opacity="1" stroke-opacity="1"  stroke-width="0.7" stroke-linecap="round" stroke-linejoin="round" stroke-miterlimit="10" />
</g>
<g transform="matrix(2.2413568 0 0 -2.2408964 429.5 500)">
<path id="feature126" fill="#ffffff" ontouchstart="color(this.id, this.getAttribute('class'))" onclick="color(this.id, this.getAttribute('class'))" d="M-120.3151 49.333151 L-120.72468 38.119392 L-119.86524 38.084699 L-120.56387 21.342247 L-120.68774 15.715951 L-125.51882 15.917554 L-147.8918 16.904746 L-148.50329 16.922693 L-147.92444 17.554158 L-148.5602 19.351908 L-147.70785 20.437152 L-147.91989 22.620282 L-147.36066 23.095642 L-147.7397 25.057593 L-147.19519 25.347365 L-147.69871 25.658469 L-147.07291 25.675336 L-147.98529 26.381995 L-147.53199 26.91957 L-148.13392 28.62153 L-147.59642 29.652327 L-147.10313 29.492663 L-147.68646 29.992934 L-146.84495 30.327315 L-146.97709 32.946924 L-146.41213 32.934719 L-146.7285 33.991738 L-145.60175 35.809195 L-146.01119 36.507801 L-147.29127 36.142891 L-147.27378 37.325355 L-147.802 37.396508 L-147.31967 38.561012 L-148.52628 38.890169 L-148.3468 41.035238 L-149.15568 41.294852 L-147.86868 43.295204 L-148.3176 43.207384 L-148.58037 44.764936 L-148.10813 44.800412 L-148.48782 45.652647 L-147.87795 45.905218 L-148.31424 46.568918 L-147.80437 47.808968 L-148.70298 48.725991 L-147.93488 49.230834 L-148.72517 50.569886 L-120.3151 49.333151 Z "  class="rgb202020" fill-rule="evenodd" stroke="#6E6E6E" fill-opacity="1" stroke-opacity="1"  stroke-width="0.7" stroke-linecap="round" stroke-linejoin="round" stroke-miterlimit="10" />
</g>
<g transform="matrix(2.2413568 0 0 -2.2408964 429.5 500)">
<path id="feature129" fill="#ffffff" ontouchstart="color(this.id, this.getAttribute('class'))" onclick="color(this.id, this.getAttribute('class'))" d="M17.889717 -17.612212 L17.827569 -29.02381 L13.879245 -29.033614 L13.898958 -45.183969 L-2.900703 -44.878981 L-2.9957419 -28.913041 L0.85343089 -28.961229 L0.94359652 -17.826791 L17.889717 -17.612212 Z "  class="rgb808080" fill-rule="evenodd" stroke="#6E6E6E" fill-opacity="1" stroke-opacity="1"  stroke-width="0.7" stroke-linecap="round" stroke-linejoin="round" stroke-miterlimit="10" />
</g>
<g transform="matrix(2.2413568 0 0 -2.2408964 429.5 500)">
<path id="feature132" fill="#ffffff" ontouchstart="color(this.id, this.getAttribute('class'))" onclick="color(this.id, this.getAttribute('class'))" d="M-93.806412 -106.54341 L-90.762065 -107.79712 L-90.001329 -109.14049 L-88.269615 -110.19195 L-88.572645 -120.30353 L-99.38454 -119.94033 L-99.823124 -119.91074 L-99.627704 -114.27424 L-122.1462 -113.45216 L-138.66077 -112.73307 L-138.1791 -101.49608 L-110.51603 -102.58341 L-110.24893 -97.009733 L-105.19963 -97.204215 L-105.08883 -94.321415 L-104.41885 -96.217969 L-102.49269 -96.189371 L-99.865733 -98.982169 L-99.690067 -100.01723 L-97.796078 -100.7495 L-96.14687 -102.42826 L-96.564629 -103.164 L-94.694742 -103.81006 L-94.455881 -104.3051 L-95.704896 -104.51235 L-95.942465 -105.2329 L-94.345546 -105.41073 L-93.806412 -106.54341 Z "  class="rgbBFBFBF" fill-rule="evenodd" stroke="#6E6E6E" fill-opacity="1" stroke-opacity="1"  stroke-width="0.7" stroke-linecap="round" stroke-linejoin="round" stroke-miterlimit="10" />
</g>
<g transform="matrix(2.2413568 0 0 -2.2408964 429.5 500)">
<path id="feature135" fill="#ffffff" ontouchstart="color(this.id, this.getAttribute('class'))" onclick="color(this.id, this.getAttribute('class'))" d="M-124.87194 139.58196 L-91.225727 137.91225 L-91.659803 114.28302 L-130.80599 115.91301 L-158.68209 117.24415 L-158.37508 118.54624 L-157.80801 119.47171 L-158.19502 120.05539 L-157.30989 119.53468 L-158.18243 120.37028 L-158.75683 120.25147 L-158.08467 120.68848 L-157.38093 120.50843 L-158.38296 121.13236 L-157.35047 122.89522 L-158.27683 123.4046 L-157.01308 124.04147 L-157.86515 124.87005 L-156.768 125.11607 L-157.82039 126.03056 L-156.81704 126.89528 L-157.93526 127.0721 L-157.20402 127.99354 L-158.42152 129.67706 L-157.37821 130.69588 L-158.631 131.39739 L-157.1977 132.30934 L-158.13996 133.06184 L-156.77817 133.05084 L-157.7456 133.88341 L-156.96999 133.84843 L-156.80439 134.52799 L-157.91611 134.51828 L-156.89994 135.72411 L-157.66626 136.57138 L-156.86223 136.72124 L-158.30284 136.9315 L-156.92663 137.58303 L-157.65229 139.08444 L-156.61463 139.58192 L-157.71396 139.65493 L-157.18688 140.60265 L-158.0211 141.09428 L-158.09946 141.20333 L-124.87194 139.58196 Z "  class="rgbFFFFFF" fill-rule="evenodd" stroke="#6E6E6E" fill-opacity="1" stroke-opacity="1"  stroke-width="0.7" stroke-linecap="round" stroke-linejoin="round" stroke-miterlimit="10" />
</g>
<g transform="matrix(2.2413568 0 0 -2.2408964 429.5 500)">
<path id="feature138" fill="#ffffff" ontouchstart="color(this.id, this.getAttribute('class'))" onclick="color(this.id, this.getAttribute('class'))" d="M62.673657 -130.30985 L67.945741 -132.92374 L70.039997 -134.97999 L70.617013 -136.40156 L70.120518 -137.67092 L71.415316 -138.69511 L71.651755 -141.56666 L73.283536 -144.00203 L63.029311 -144.13315 L63.079534 -149.67819 L51.950839 -149.73834 L51.904048 -144.1712 L41.144225 -144.18977 L41.089331 -132.99334 L46.645819 -132.97364 L46.623394 -127.3711 L55.320629 -127.35877 L56.570587 -128.36294 L62.673657 -130.30985 Z "  class="rgbDFDFDF" fill-rule="evenodd" stroke="#6E6E6E" fill-opacity="1" stroke-opacity="1"  stroke-width="0.7" stroke-linecap="round" stroke-linejoin="round" stroke-miterlimit="10" />
</g>
<g transform="matrix(2.2413568 0 0 -2.2408964 429.5 500)">
<path id="feature141" fill="#ffffff" ontouchstart="color(this.id, this.getAttribute('class'))" onclick="color(this.id, this.getAttribute('class'))" d="M-113.8385 71.561172 L-114.69717 49.150766 L-120.3151 49.333151 L-148.72517 50.569886 L-147.74812 51.433916 L-148.34985 52.239154 L-147.8146 52.759612 L-148.4351 52.796672 L-147.9844 53.171677 L-148.79525 53.335405 L-147.99586 53.810411 L-148.2144 55.143031 L-148.75301 55.07469 L-148.15129 56.204683 L-148.6004 56.349037 L-148.17859 57.770444 L-148.69274 57.776528 L-148.11692 58.115538 L-148.67426 58.366276 L-147.81535 60.587474 L-148.50104 61.243707 L-147.70982 62.689118 L-148.82747 64.617255 L-147.88722 64.817914 L-148.6504 65.008035 L-147.90362 65.511832 L-148.3456 66.29348 L-147.89001 66.62601 L-148.46345 67.088678 L-147.98399 67.434944 L-149.25628 67.963182 L-148.47489 68.324739 L-148.7777 70.397325 L-148.19635 71.794226 L-148.92311 71.792727 L-148.00034 73.073881 L-113.8385 71.561172 Z "  class="rgb202020" fill-rule="evenodd" stroke="#6E6E6E" fill-opacity="1" stroke-opacity="1"  stroke-width="0.7" stroke-linecap="round" stroke-linejoin="round" stroke-miterlimit="10" />
</g>
<g transform="matrix(2.2413568 0 0 -2.2408964 429.5 500)">
<path id="feature144" fill="#ffffff" ontouchstart="color(this.id, this.getAttribute('class'))" onclick="color(this.id, this.getAttribute('class'))" d="M-3.0342025 -76.399836 L-1.8243649 -77.697771 L0.88625097 -78.419158 L6.0833124 -83.019766 L7.5906483 -85.632058 L7.3423609 -90.017409 L9.9263083 -90.005814 L10.787827 -90.003419 L11.111102 -98.128027 L12.118489 -99.514502 L10.183316 -103.20465 L8.740609 -104.46318 L5.1659077 -105.76555 L2.835486 -106.1231 L2.5912879 -105.32117 L0.19140186 -104.32815 L-0.37391793 -104.93982 L-3.592679 -104.86984 L-3.5692421 -99.242858 L-14.863967 -99.194557 L-14.825766 -93.576262 L-14.511619 -86.916877 L-13.448808 -86.91654 L-11.687174 -83.386798 L-8.8362026 -81.523122 L-9.6634037 -79.457915 L-8.7732492 -78.653736 L-8.3552665 -79.153918 L-6.9142118 -78.845025 L-6.7152049 -78.142199 L-4.4272201 -77.235256 L-3.7953407 -77.894906 L-3.4650148 -76.336761 L-3.0342025 -76.399836 Z "  class="rgb000000" fill-rule="evenodd" stroke="#6E6E6E" fill-opacity="1" stroke-opacity="1"  stroke-width="0.7" stroke-linecap="round" stroke-linejoin="round" stroke-miterlimit="10" />
</g>
<g transform="matrix(2.2413568 0 0 -2.2408964 429.5 500)">
<path id="feature147" fill="#ffffff" ontouchstart="color(this.id, this.getAttribute('class'))" onclick="color(this.id, this.getAttribute('class'))" d="M46.028118 -167.42988 L46.171795 -188.94558 L41.281558 -188.99044 L19.162066 -189.07785 L17.995709 -189.07914 L17.993548 -166.59023 L18.159602 -166.58877 L34.80111 -166.55551 L34.809717 -167.50495 L46.028118 -167.42988 Z "  class="rgb404040" fill-rule="evenodd" stroke="#6E6E6E" fill-opacity="1" stroke-opacity="1"  stroke-width="0.7" stroke-linecap="round" stroke-linejoin="round" stroke-miterlimit="10" />
</g>
<g transform="matrix(2.2413568 0 0 -2.2408964 429.5 500)">
<path id="feature150" fill="#ffffff" ontouchstart="color(this.id, this.getAttribute('class'))" onclick="color(this.id, this.getAttribute('class'))" d="M-31.784291 -55.88571 L-31.505817 -60.136615 L-27.27028 -64.735243 L-29.061724 -67.482513 L-29.402676 -69.893687 L-32.587646 -72.509446 L-34.045826 -71.345178 L-36.710372 -71.991405 L-37.108605 -73.557173 L-42.693922 -73.539385 L-42.656917 -70.702519 L-59.9202 -70.408742 L-59.790971 -64.812333 L-76.547265 -64.436211 L-76.311514 -42.075542 L-76.289185 -41.138474 L-53.909384 -41.633737 L-37.105408 -41.859025 L-36.594882 -43.986848 L-34.600908 -45.056867 L-35.013592 -45.990052 L-34.097102 -48.168014 L-33.173346 -48.089701 L-33.85108 -48.663048 L-34.181795 -51.947607 L-31.784291 -55.88571 Z "  class="rgb808080" fill-rule="evenodd" stroke="#6E6E6E" fill-opacity="1" stroke-opacity="1"  stroke-width="0.7" stroke-linecap="round" stroke-linejoin="round" stroke-miterlimit="10" />
</g>
<g transform="matrix(2.2413568 0 0 -2.2408964 429.5 500)">
<path id="feature153" fill="#ffffff" ontouchstart="color(this.id, this.getAttribute('class'))" onclick="color(this.id, this.getAttribute('class'))" d="M51.969859 -17.523809 L52.002677 -22.874993 L50.263336 -23.643577 L49.502042 -26.638911 L45.985891 -26.157931 L44.155656 -29.439738 L41.658778 -28.791431 L40.557325 -29.822061 L40.467563 -30.87641 L36.56264 -32.024253 L36.552121 -32.644146 L33.471486 -34.570018 L30.896191 -38.753611 L31.231418 -40.27566 L30.029568 -43.012753 L27.48591 -45.223348 L13.898958 -45.183969 L13.879245 -29.033614 L17.827569 -29.02381 L17.889717 -17.612212 L17.857619 -0.76384418 L51.858152 -0.75583904 L51.969859 -17.523809 Z "  class="rgb404040" fill-rule="evenodd" stroke="#6E6E6E" fill-opacity="1" stroke-opacity="1"  stroke-width="0.7" stroke-linecap="round" stroke-linejoin="round" stroke-miterlimit="10" />
</g>
<g transform="matrix(2.2413568 0 0 -2.2408964 429.5 500)">
<path id="feature156" fill="#ffffff" ontouchstart="color(this.id, this.getAttribute('class'))" onclick="color(this.id, this.getAttribute('class'))" d="M-53.566282 -4.5476901 L-53.909384 -41.633737 L-76.289185 -41.138474 L-75.987728 -19.626676 L-75.962854 -2.7046442 L-57.021996 -3.1876056 L-56.534869 -4.3362428 L-54.610919 -4.4106987 L-54.261226 -3.7536046 L-53.566282 -4.5476901 Z "  class="rgb9F9F9F" fill-rule="evenodd" stroke="#6E6E6E" fill-opacity="1" stroke-opacity="1"  stroke-width="0.7" stroke-linecap="round" stroke-linejoin="round" stroke-miterlimit="10" />
</g>
<g transform="matrix(2.2413568 0 0 -2.2408964 429.5 500)">
<path id="feature159" fill="#ffffff" ontouchstart="color(this.id, this.getAttribute('class'))" onclick="color(this.id, this.getAttribute('class'))" d="M111.30192 71.508486 L111.17162 71.415045 L111.18836 71.506993 L111.30192 71.508486 Z M113.6981 113.97006 L114.33908 114.48792 L115.44344 112.88237 L116.26365 113.16756 L115.42621 111.43078 L116.11418 111.35581 L115.78685 110.98949 L117.51552 108.52506 L122.2469 109.47711 L124.87219 110.87681 L125.76689 110.76033 L125.34442 109.79552 L125.92567 109.107 L128.93484 109.4025 L129.75122 110.05822 L131.03753 109.45021 L132.54649 109.91213 L133.81713 109.03969 L136.47188 110.05899 L137.48239 109.68696 L143.86771 110.7911 L149.00459 109.18984 L150.18594 107.48176 L150.43675 105.59358 L152.23983 104.53175 L153.03469 104.88365 L154.71264 103.13935 L156.87909 103.52617 L158.00127 105.05088 L159.92058 105.61756 L165.3386 104.62026 L167.0614 105.61073 L168.37362 104.25582 L172.23609 105.05953 L171.22981 104.69819 L167.58386 103.16455 L166.54376 104.10153 L165.47073 103.05284 L165.99039 101.4067 L165.17695 102.22813 L164.22111 102.0334 L164.20432 100.77613 L161.03736 97.993358 L153.89937 94.993463 L151.77993 92.870907 L127.69076 83.839802 L117.3178 77.213475 L106.8094 67.807158 L106.21641 95.107309 L105.2424 114.48636 L107.55545 116.54472 L111.45291 118.35168 L111.91419 117.84749 L113.0988 118.31049 L113.6981 113.97006 Z "  class="rgb202020" fill-rule="evenodd" stroke="#6E6E6E" fill-opacity="1" stroke-opacity="1"  stroke-width="0.7" stroke-linecap="round" stroke-linejoin="round" stroke-miterlimit="10" />
</g>
<g transform="matrix(2.2413568 0 0 -2.2408964 429.5 500)">
<path id="feature162" fill="#ffffff" ontouchstart="color(this.id, this.getAttribute('class'))" onclick="color(this.id, this.getAttribute('class'))" d="M16.521031 141.74126 L16.098695 108.51074 L16.782321 94.258217 L-13.361631 94.882382 L-13.413105 91.491578 L-41.318756 91.849899 L-41.13523 125.51393 L-40.799988 147.04389 L-40.186046 147.67858 L-34.84373 147.37552 L-33.555773 146.61909 L-33.157613 144.03374 L-32.054582 143.57105 L-15.666297 141.99781 L-14.248344 138.6949 L-14.772184 135.62945 L-13.760723 134.71241 L-7.8519386 134.63925 L-6.6522749 135.62891 L-5.87502 135.00588 L0.18778241 136.48321 L0.74131579 137.55277 L0.42576062 139.48777 L2.9593229 140.6061 L4.4180364 140.32366 L5.4075259 141.69662 L9.4034932 142.73503 L11.432722 142.70778 L12.668355 141.4693 L16.521031 141.74126 Z "  class="rgb404040" fill-rule="evenodd" stroke="#6E6E6E" fill-opacity="1" stroke-opacity="1"  stroke-width="0.7" stroke-linecap="round" stroke-linejoin="round" stroke-miterlimit="10" />
</g>
<g transform="matrix(2.2413568 0 0 -2.2408964 429.5 500)">
<path id="feature165" fill="#ffffff" ontouchstart="color(this.id, this.getAttribute('class'))" onclick="color(this.id, this.getAttribute('class'))" d="M-103.98052 -18.716298 L-104.25221 -41.152166 L-126.62627 -40.317576 L-126.48145 -23.407569 L-126.21608 -17.796641 L-103.98052 -18.716298 Z "  class="rgbBFBFBF" fill-rule="evenodd" stroke="#6E6E6E" fill-opacity="1" stroke-opacity="1"  stroke-width="0.7" stroke-linecap="round" stroke-linejoin="round" stroke-miterlimit="10" />
</g>
<g transform="matrix(2.2413568 0 0 -2.2408964 429.5 500)">
<path id="feature168" fill="#ffffff" ontouchstart="color(this.id, this.getAttribute('class'))" onclick="color(this.id, this.getAttribute('class'))" d="M-75.323003 64.681154 L-75.175206 47.871106 L-91.991725 48.310687 L-91.389128 70.797413 L-90.982647 82.0053 L-92.09152 82.046369 L-91.674883 98.84685 L-91.519375 104.4355 L-76.20584 103.91849 L-77.944244 100.7929 L-78.501721 98.055453 L-77.522119 95.378443 L-74.942626 94.361818 L-75.323003 64.681154 Z "  class="rgb000000" fill-rule="evenodd" stroke="#6E6E6E" fill-opacity="1" stroke-opacity="1"  stroke-width="0.7" stroke-linecap="round" stroke-linejoin="round" stroke-miterlimit="10" />
</g>
<g transform="matrix(2.2413568 0 0 -2.2408964 429.5 500)">
<path id="feature171" fill="#ffffff" ontouchstart="color(this.id, this.getAttribute('class'))" onclick="color(this.id, this.getAttribute('class'))" d="M-97.198008 99.15514 L-97.375138 93.526948 L-102.92171 93.701891 L-103.1438 88.067745 L-125.53183 88.925416 L-125.3308 94.542539 L-130.95005 94.797774 L-130.63146 102.29405 L-97.142898 100.99613 L-97.198008 99.15514 Z "  class="rgb808080" fill-rule="evenodd" stroke="#6E6E6E" fill-opacity="1" stroke-opacity="1"  stroke-width="0.7" stroke-linecap="round" stroke-linejoin="round" stroke-miterlimit="10" />
</g>
<g transform="matrix(2.2413568 0 0 -2.2408964 429.5 500)">
<path id="feature174" fill="#ffffff" ontouchstart="color(this.id, this.getAttribute('class'))" onclick="color(this.id, this.getAttribute('class'))" d="M0.94359652 -17.826791 L0.85343089 -28.961229 L-2.9957419 -28.913041 L-2.900703 -44.878981 L-2.8383041 -56.204113 L-14.109303 -56.058531 L-14.152237 -39.123097 L-14.275467 -28.774453 L-16.13838 -28.719859 L-16.026204 -17.526752 L-15.993824 -11.943186 L-15.338856 -11.94524 L1.0289836 -11.864528 L0.94359652 -17.826791 Z "  class="rgb404040" fill-rule="evenodd" stroke="#6E6E6E" fill-opacity="1" stroke-opacity="1"  stroke-width="0.7" stroke-linecap="round" stroke-linejoin="round" stroke-miterlimit="10" />
</g>
<g transform="matrix(2.2413568 0 0 -2.2408964 429.5 500)">
<path id="feature177" fill="#ffffff" ontouchstart="color(this.id, this.getAttribute('class'))" onclick="color(this.id, this.getAttribute('class'))" d="M-41.13523 125.51393 L-41.318756 91.849899 L-41.693169 65.972439 L-41.736669 63.843248 L-52.857052 63.955444 L-75.323003 64.681154 L-74.942626 94.361818 L-77.522119 95.378443 L-78.501721 98.055453 L-77.944244 100.7929 L-76.20584 103.91849 L-91.519375 104.4355 L-91.659803 114.28302 L-91.225727 137.91225 L-80.090416 137.63746 L-74.495166 137.45456 L-74.776192 126.22487 L-41.13523 125.51393 Z "  class="rgb000000" fill-rule="evenodd" stroke="#6E6E6E" fill-opacity="1" stroke-opacity="1"  stroke-width="0.7" stroke-linecap="round" stroke-linejoin="round" stroke-miterlimit="10" />
</g>
<g transform="matrix(2.2413568 0 0 -2.2408964 429.5 500)">
<path id="feature180" fill="#ffffff" ontouchstart="color(this.id, this.getAttribute('class'))" onclick="color(this.id, this.getAttribute('class'))" d="M-15.062289 -115.35492 L-15.271805 -115.99894 L-15.345209 -115.51202 L-16.121138 -116.10039 L-16.681321 -115.70474 L-18.230924 -116.73148 L-19.238823 -116.57426 L-19.381425 -117.562 L-21.290647 -118.68767 L-20.801641 -121.31213 L-21.417451 -120.98741 L-21.687952 -121.55269 L-20.660059 -122.66026 L-20.653288 -124.0509 L-22.634487 -127.12314 L-54.723854 -126.66155 L-54.632483 -109.84656 L-48.588318 -109.92988 L-48.680782 -115.55755 L-47.000374 -115.58972 L-37.483196 -115.72138 L-37.366677 -110.07542 L-26.165303 -110.25642 L-20.56164 -110.34886 L-20.601318 -113.16314 L-15.048407 -113.21244 L-15.062289 -115.35492 Z "  class="rgbBFBFBF" fill-rule="evenodd" stroke="#6E6E6E" fill-opacity="1" stroke-opacity="1"  stroke-width="0.7" stroke-linecap="round" stroke-linejoin="round" stroke-miterlimit="10" />
</g>
<g transform="matrix(2.2413568 0 0 -2.2408964 429.5 500)">
<path id="feature183" fill="#ffffff" ontouchstart="color(this.id, this.getAttribute('class'))" onclick="color(this.id, this.getAttribute('class'))" d="M-82.228722 -81.066562 L-82.789093 -97.903739 L-93.536051 -97.628993 L-93.806412 -106.54341 L-94.345546 -105.41073 L-95.942465 -105.2329 L-95.704896 -104.51235 L-94.455881 -104.3051 L-94.694742 -103.81006 L-96.564629 -103.164 L-96.14687 -102.42826 L-97.796078 -100.7495 L-99.690067 -100.01723 L-99.865733 -98.982169 L-102.49269 -96.189371 L-104.41885 -96.217969 L-105.08883 -94.321415 L-108.39003 -93.138664 L-109.01509 -90.590831 L-116.73081 -82.540589 L-118.29545 -79.898271 L-82.228722 -81.066562 Z "  class="rgb9F9F9F" fill-rule="evenodd" stroke="#6E6E6E" fill-opacity="1" stroke-opacity="1"  stroke-width="0.7" stroke-linecap="round" stroke-linejoin="round" stroke-miterlimit="10" />
</g>
<g transform="matrix(2.2413568 0 0 -2.2408964 429.5 500)">
<path id="feature186" fill="#ffffff" ontouchstart="color(this.id, this.getAttribute('class'))" onclick="color(this.id, this.getAttribute('class'))" d="M-65.823468 -123.70242 L-66.160863 -137.62304 L-77.33801 -137.39129 L-77.541783 -142.98294 L-93.955148 -142.46829 L-100.03546 -142.30774 L-99.38454 -119.94033 L-88.572645 -120.30353 L-88.269615 -110.19195 L-86.177434 -110.67593 L-85.264528 -112.71598 L-82.99111 -112.37322 L-80.369111 -115.22434 L-75.9739 -118.20776 L-76.428212 -118.68144 L-75.019078 -118.71947 L-73.054765 -120.45979 L-72.489956 -120.19754 L-72.716383 -120.65429 L-71.426331 -120.46245 L-68.313126 -122.46149 L-66.485832 -122.47315 L-65.823468 -123.70242 Z "  class="rgb404040" fill-rule="evenodd" stroke="#6E6E6E" fill-opacity="1" stroke-opacity="1"  stroke-width="0.7" stroke-linecap="round" stroke-linejoin="round" stroke-miterlimit="10" />
</g>
<g transform="matrix(2.2413568 0 0 -2.2408964 429.5 500)">
<path id="feature189" fill="#ffffff" ontouchstart="color(this.id, this.getAttribute('class'))" onclick="color(this.id, this.getAttribute('class'))" d="M-75.962854 -2.7046442 L-75.987728 -19.626676 L-103.98052 -18.716298 L-126.21608 -17.796641 L-125.51882 15.917554 L-120.68774 15.715951 L-120.56387 21.342247 L-75.709279 19.806104 L-75.962854 -2.7046442 Z "  class="rgbBFBFBF" fill-rule="evenodd" stroke="#6E6E6E" fill-opacity="1" stroke-opacity="1"  stroke-width="0.7" stroke-linecap="round" stroke-linejoin="round" stroke-miterlimit="10" />
</g>
<g transform="matrix(2.2413568 0 0 -2.2408964 429.5 500)">
<path id="feature192" fill="#ffffff" ontouchstart="color(this.id, this.getAttribute('class'))" onclick="color(this.id, this.getAttribute('class'))" d="M-76.547265 -64.436211 L-82.156962 -64.27525 L-104.51939 -63.593224 L-104.25221 -41.152166 L-76.311514 -42.075542 L-76.547265 -64.436211 Z "  class="rgbFFFFFF" fill-rule="evenodd" stroke="#6E6E6E" fill-opacity="1" stroke-opacity="1"  stroke-width="0.7" stroke-linecap="round" stroke-linejoin="round" stroke-miterlimit="10" />
</g>
<g transform="matrix(2.2413568 0 0 -2.2408964 429.5 500)">
<path id="feature195" fill="#ffffff" ontouchstart="color(this.id, this.getAttribute('class'))" onclick="color(this.id, this.getAttribute('class'))" d="M-122.1462 -113.45216 L-122.36996 -119.0467 L-121.77591 -119.09126 L-122.53762 -141.46025 L-139.89987 -140.75929 L-138.91198 -118.38891 L-138.66077 -112.73307 L-122.1462 -113.45216 Z "  class="rgbFFFFFF" fill-rule="evenodd" stroke="#6E6E6E" fill-opacity="1" stroke-opacity="1"  stroke-width="0.7" stroke-linecap="round" stroke-linejoin="round" stroke-miterlimit="10" />
</g>
<g transform="matrix(2.2413568 0 0 -2.2408964 429.5 500)">
<path id="feature198" fill="#ffffff" ontouchstart="color(this.id, this.getAttribute('class'))" onclick="color(this.id, this.getAttribute('class'))" d="M51.743582 15.121708 L51.858152 -0.75583904 L17.857619 -0.76384418 L17.576953 21.642818 L51.266585 21.623332 L51.743582 15.121708 Z "  class="rgb000000" fill-rule="evenodd" stroke="#6E6E6E" fill-opacity="1" stroke-opacity="1"  stroke-width="0.7" stroke-linecap="round" stroke-linejoin="round" stroke-miterlimit="10" />
</g>
<g transform="matrix(2.2413568 0 0 -2.2408964 429.5 500)">
<path id="feature201" fill="#ffffff" ontouchstart="color(this.id, this.getAttribute('class'))" onclick="color(this.id, this.getAttribute('class'))" d="M17.576953 21.642818 L17.857619 -0.76384418 L17.889717 -17.612212 L0.94359652 -17.826791 L1.0289836 -11.864528 L-15.338856 -11.94524 L-15.981946 -11.289246 L-15.792753 10.064562 L-14.296444 10.400053 L-14.077172 24.156283 L-13.898101 38.836653 L17.836563 38.409921 L17.576953 21.642818 Z "  class="rgb9F9F9F" fill-rule="evenodd" stroke="#6E6E6E" fill-opacity="1" stroke-opacity="1"  stroke-width="0.7" stroke-linecap="round" stroke-linejoin="round" stroke-miterlimit="10" />
</g>
<g transform="matrix(2.2413568 0 0 -2.2408964 429.5 500)">
<path id="feature204" fill="#ffffff" ontouchstart="color(this.id, this.getAttribute('class'))" onclick="color(this.id, this.getAttribute('class'))" d="M19.416028 -65.760317 L-2.8685331 -65.491635 L-2.8383041 -56.204113 L-2.900703 -44.878981 L13.898958 -45.183969 L13.871059 -56.314833 L19.301031 -56.378894 L19.416028 -65.760317 Z "  class="rgb606060" fill-rule="evenodd" stroke="#6E6E6E" fill-opacity="1" stroke-opacity="1"  stroke-width="0.7" stroke-linecap="round" stroke-linejoin="round" stroke-miterlimit="10" />
</g>
<g transform="matrix(2.2413568 0 0 -2.2408964 429.5 500)">
<path id="feature207" fill="#ffffff" ontouchstart="color(this.id, this.getAttribute('class'))" onclick="color(this.id, this.getAttribute('class'))" d="M-27.27028 -64.735243 L-26.301268 -65.934258 L-25.423485 -65.98373 L-25.561513 -66.821162 L-24.965172 -66.132595 L-23.219842 -67.683246 L-21.291189 -67.3853 L-19.163797 -70.223832 L-17.508555 -70.531721 L-14.671744 -72.973894 L-10.914597 -72.51125 L-10.183542 -73.151912 L-6.1654133 -73.397196 L-5.3693834 -72.800539 L-4.8563308 -75.108311 L-3.4650148 -76.336761 L-3.7953407 -77.894906 L-4.4272201 -77.235256 L-6.7152049 -78.142199 L-6.9142118 -78.845025 L-8.3552665 -79.153918 L-8.7732492 -78.653736 L-9.6634037 -79.457915 L-8.8362026 -81.523122 L-11.687174 -83.386798 L-13.448808 -86.91654 L-14.511619 -86.916877 L-14.825766 -93.576262 L-26.035449 -93.404949 L-37.197638 -93.200169 L-37.108605 -73.557173 L-36.710372 -71.991405 L-34.045826 -71.345178 L-32.587646 -72.509446 L-29.402676 -69.893687 L-29.061724 -67.482513 L-27.27028 -64.735243 Z "  class="rgb808080" fill-rule="evenodd" stroke="#6E6E6E" fill-opacity="1" stroke-opacity="1"  stroke-width="0.7" stroke-linecap="round" stroke-linejoin="round" stroke-miterlimit="10" />
</g>
<g transform="matrix(2.2413568 0 0 -2.2408964 429.5 500)">
<path id="feature210" fill="#ffffff" ontouchstart="color(this.id, this.getAttribute('class'))" onclick="color(this.id, this.getAttribute('class'))" d="M63.079534 -149.67819 L63.275825 -166.43963 L46.028331 -166.5161 L46.028118 -167.42988 L34.809717 -167.50495 L34.80111 -166.55551 L35.313526 -166.5589 L35.21208 -144.17888 L41.144225 -144.18977 L51.904048 -144.1712 L51.950839 -149.73834 L63.079534 -149.67819 Z "  class="rgb202020" fill-rule="evenodd" stroke="#6E6E6E" fill-opacity="1" stroke-opacity="1"  stroke-width="0.7" stroke-linecap="round" stroke-linejoin="round" stroke-miterlimit="10" />
</g>
<g transform="matrix(2.2413568 0 0 -2.2408964 429.5 500)">
<path id="feature213" fill="#ffffff" ontouchstart="color(this.id, this.getAttribute('class'))" onclick="color(this.id, this.getAttribute('class'))" d="M-4.0651249 -144.10054 L-15.32809 -144.0209 L-15.304617 -141.21233 L-26.608635 -141.10222 L-27.077466 -140.93522 L-26.512391 -140.25596 L-27.216519 -139.95406 L-26.614061 -138.7939 L-24.143925 -136.73872 L-22.867648 -134.38569 L-24.187935 -133.0754 L-23.736968 -131.65514 L-24.358867 -131.37197 L-23.624976 -131.17595 L-22.634487 -127.12314 L-20.653288 -124.0509 L-20.660059 -122.66026 L-21.687952 -121.55269 L-3.8797432 -121.67975 L-4.0651249 -144.10054 Z "  class="rgbBFBFBF" fill-rule="evenodd" stroke="#6E6E6E" fill-opacity="1" stroke-opacity="1"  stroke-width="0.7" stroke-linecap="round" stroke-linejoin="round" stroke-miterlimit="10" />
</g>
<g transform="matrix(2.2413568 0 0 -2.2408964 429.5 500)">
<path id="feature216" fill="#ffffff" ontouchstart="color(this.id, this.getAttribute('class'))" onclick="color(this.id, this.getAttribute('class'))" d="M-10.138337 -188.96284 L-25.264201 -188.80241 L-38.276537 -188.61303 L-37.899682 -166.18411 L-15.527275 -166.45601 L-9.9513466 -166.49194 L-10.138337 -188.96284 Z "  class="rgbDFDFDF" fill-rule="evenodd" stroke="#6E6E6E" fill-opacity="1" stroke-opacity="1"  stroke-width="0.7" stroke-linecap="round" stroke-linejoin="round" stroke-miterlimit="10" />
</g>
<g transform="matrix(2.2413568 0 0 -2.2408964 429.5 500)">
<path id="feature219" fill="#ffffff" ontouchstart="color(this.id, this.getAttribute('class'))" onclick="color(this.id, this.getAttribute('class'))" d="M-43.586532 -166.08764 L-66.244116 -165.64264 L-66.47487 -165.63785 L-66.116283 -148.87465 L-43.301829 -149.27818 L-43.586532 -166.08764 Z "  class="rgbBFBFBF" fill-rule="evenodd" stroke="#6E6E6E" fill-opacity="1" stroke-opacity="1"  stroke-width="0.7" stroke-linecap="round" stroke-linejoin="round" stroke-miterlimit="10" />
</g>
<g transform="matrix(2.2413568 0 0 -2.2408964 429.5 500)">
<path id="feature222" fill="#ffffff" ontouchstart="color(this.id, this.getAttribute('class'))" onclick="color(this.id, this.getAttribute('class'))" d="M51.848001 -121.79361 L52.88196 -125.12067 L55.320629 -127.35877 L46.623394 -127.3711 L46.645819 -132.97364 L41.089331 -132.99334 L41.144225 -144.18977 L35.21208 -144.17888 L18.395159 -144.1295 L18.481376 -126.38433 L18.489474 -123.56754 L21.138186 -123.36756 L22.488632 -124.11982 L24.053539 -123.4337 L24.042069 -121.77926 L29.871294 -121.78696 L29.857813 -116.19179 L32.6462 -116.19901 L32.628204 -110.72566 L37.247197 -114.91026 L37.821175 -117.20397 L40.218784 -117.90526 L41.182976 -120.15898 L42.442492 -119.64804 L49.941279 -120.6822 L51.848001 -121.79361 Z "  class="rgb808080" fill-rule="evenodd" stroke="#6E6E6E" fill-opacity="1" stroke-opacity="1"  stroke-width="0.7" stroke-linecap="round" stroke-linejoin="round" stroke-miterlimit="10" />
</g>
<g transform="matrix(2.2413568 0 0 -2.2408964 429.5 500)">
<path id="feature225" fill="#ffffff" ontouchstart="color(this.id, this.getAttribute('class'))" onclick="color(this.id, this.getAttribute('class'))" d="M-39.714542 -9.390052 L-42.127837 -12.510207 L-42.16976 -13.756084 L-40.908831 -15.730226 L-41.321682 -17.146062 L-16.026204 -17.526752 L-16.13838 -28.719859 L-14.275467 -28.774453 L-14.152237 -39.123097 L-40.728177 -38.771694 L-38.665922 -41.144129 L-37.105408 -41.859025 L-53.909384 -41.633737 L-53.566282 -4.5476901 L-52.227854 -5.9961698 L-51.390376 -5.7946931 L-48.318887 -7.6145459 L-44.964488 -5.8472643 L-43.446774 -5.7992267 L-41.853532 -7.6889024 L-41.478966 -7.3106313 L-40.090978 -8.2412774 L-39.714542 -9.390052 Z "  class="rgbDFDFDF" fill-rule="evenodd" stroke="#6E6E6E" fill-opacity="1" stroke-opacity="1"  stroke-width="0.7" stroke-linecap="round" stroke-linejoin="round" stroke-miterlimit="10" />
</g>
<g transform="matrix(2.2413568 0 0 -2.2408964 429.5 500)">
<path id="feature228" fill="#ffffff" ontouchstart="color(this.id, this.getAttribute('class'))" onclick="color(this.id, this.getAttribute('class'))" d="M-91.389128 70.797413 L-91.991725 48.310687 L-114.69717 49.150766 L-113.8385 71.561172 L-91.389128 70.797413 Z "  class="rgb000000" fill-rule="evenodd" stroke="#6E6E6E" fill-opacity="1" stroke-opacity="1"  stroke-width="0.7" stroke-linecap="round" stroke-linejoin="round" stroke-miterlimit="10" />
</g>
<g transform="matrix(2.2413568 0 0 -2.2408964 429.5 500)">
<path id="feature231" fill="#ffffff" ontouchstart="color(this.id, this.getAttribute('class'))" onclick="color(this.id, this.getAttribute('class'))" d="M19.416028 -65.760317 L19.419873 -73.174139 L19.367914 -84.331441 L9.9073591 -84.273896 L9.9263083 -90.005814 L7.3423609 -90.017409 L7.5906483 -85.632058 L6.0833124 -83.019766 L0.88625097 -78.419158 L-1.8243649 -77.697771 L-3.0342025 -76.399836 L-2.8685331 -65.491635 L19.416028 -65.760317 Z "  class="rgb000000" fill-rule="evenodd" stroke="#6E6E6E" fill-opacity="1" stroke-opacity="1"  stroke-width="0.7" stroke-linecap="round" stroke-linejoin="round" stroke-miterlimit="10" />
</g>
<g transform="matrix(2.2413568 0 0 -2.2408964 429.5 500)">
<path id="feature234" fill="#ffffff" ontouchstart="color(this.id, this.getAttribute('class'))" onclick="color(this.id, this.getAttribute('class'))" d="M74.489313 33.628432 L74.503276 33.688025 L74.585514 33.71145 L74.489313 33.628432 Z M105.2424 114.48636 L106.21641 95.107309 L106.8094 67.807158 L101.13155 62.16605 L99.942382 59.534991 L96.119642 55.316106 L96.397943 54.890523 L95.465157 54.674256 L87.870687 45.83571 L83.168494 43.086688 L82.267842 41.295468 L80.23919 39.731832 L80.437117 38.964631 L79.630038 39.075759 L79.308226 38.055065 L77.478224 37.513918 L73.601805 33.250089 L72.151385 114.7317 L75.800225 114.48704 L75.364515 112.70488 L76.195558 112.72638 L76.536344 110.85162 L75.974595 109.09663 L77.219848 109.60316 L77.025042 108.92679 L78.506824 109.1103 L79.092066 108.00934 L82.575963 108.80505 L81.926224 106.0828 L82.321503 104.63175 L85.679024 106.2692 L87.335537 106.34938 L88.256992 105.06412 L90.771462 106.45982 L95.277621 107.15848 L100.49941 112.16567 L103.05523 113.93242 L105.2424 114.48636 Z "  class="rgb9F9F9F" fill-rule="evenodd" stroke="#6E6E6E" fill-opacity="1" stroke-opacity="1"  stroke-width="0.7" stroke-linecap="round" stroke-linejoin="round" stroke-miterlimit="10" />
</g>
<g transform="matrix(2.2413568 0 0 -2.2408964 429.5 500)">
<path id="feature237" fill="#ffffff" ontouchstart="color(this.id, this.getAttribute('class'))" onclick="color(this.id, this.getAttribute('class'))" d="M-122.53762 -141.46025 L-121.85127 -141.49851 L-122.72393 -163.90128 L-140.84902 -163.1561 L-139.89987 -140.75929 L-122.53762 -141.46025 Z "  class="rgb404040" fill-rule="evenodd" stroke="#6E6E6E" fill-opacity="1" stroke-opacity="1"  stroke-width="0.7" stroke-linecap="round" stroke-linejoin="round" stroke-miterlimit="10" />
</g>
<g transform="matrix(2.2413568 0 0 -2.2408964 429.5 500)">
<path id="feature240" fill="#ffffff" ontouchstart="color(this.id, this.getAttribute('class'))" onclick="color(this.id, this.getAttribute('class'))" d="M-58.872235 24.954757 L-59.114172 -1.4881264 L-58.476538 -1.4057173 L-57.916166 -2.4935379 L-57.023391 -2.1939432 L-57.021996 -3.1876056 L-75.962854 -2.7046442 L-75.709279 19.806104 L-75.523628 25.423544 L-58.872235 24.954757 Z "  class="rgb808080" fill-rule="evenodd" stroke="#6E6E6E" fill-opacity="1" stroke-opacity="1"  stroke-width="0.7" stroke-linecap="round" stroke-linejoin="round" stroke-miterlimit="10" />
</g>
<g transform="matrix(2.2413568 0 0 -2.2408964 429.5 500)">
<path id="feature243" fill="#ffffff" ontouchstart="color(this.id, this.getAttribute('class'))" onclick="color(this.id, this.getAttribute('class'))" d="M-93.955148 -142.46829 L-94.62036 -164.91388 L-122.14978 -163.92053 L-122.72393 -163.90128 L-121.85127 -141.49851 L-100.03546 -142.30774 L-93.955148 -142.46829 Z "  class="rgbFFFFFF" fill-rule="evenodd" stroke="#6E6E6E" fill-opacity="1" stroke-opacity="1"  stroke-width="0.7" stroke-linecap="round" stroke-linejoin="round" stroke-miterlimit="10" />
</g>
<g transform="matrix(2.2413568 0 0 -2.2408964 429.5 500)">
<path id="feature246" fill="#ffffff" ontouchstart="color(this.id, this.getAttribute('class'))" onclick="color(this.id, this.getAttribute('class'))" d="M-99.38454 -119.94033 L-100.03546 -142.30774 L-121.85127 -141.49851 L-122.53762 -141.46025 L-121.77591 -119.09126 L-122.36996 -119.0467 L-122.1462 -113.45216 L-99.627704 -114.27424 L-99.823124 -119.91074 L-99.38454 -119.94033 Z "  class="rgb808080" fill-rule="evenodd" stroke="#6E6E6E" fill-opacity="1" stroke-opacity="1"  stroke-width="0.7" stroke-linecap="round" stroke-linejoin="round" stroke-miterlimit="10" />
</g>
<g transform="matrix(2.2413568 0 0 -2.2408964 429.5 500)">
<path id="feature249" fill="#ffffff" ontouchstart="color(this.id, this.getAttribute('class'))" onclick="color(this.id, this.getAttribute('class'))" d="M17.993548 -166.59023 L17.995709 -189.07914 L-3.0417128 -189.01543 L-10.138337 -188.96284 L-9.9513466 -166.49194 L1.3265601 -166.56509 L17.993548 -166.59023 Z "  class="rgb606060" fill-rule="evenodd" stroke="#6E6E6E" fill-opacity="1" stroke-opacity="1"  stroke-width="0.7" stroke-linecap="round" stroke-linejoin="round" stroke-miterlimit="10" />
</g>
<g transform="matrix(2.2413568 0 0 -2.2408964 429.5 500)">
<path id="feature252" fill="#ffffff" ontouchstart="color(this.id, this.getAttribute('class'))" onclick="color(this.id, this.getAttribute('class'))" d="M19.385839 -99.367815 L20.088575 -104.26198 L19.370158 -105.5934 L19.571586 -106.79732 L21.965893 -107.15183 L23.583417 -106.41844 L25.803122 -106.93931 L26.955787 -108.58771 L29.405185 -108.71426 L32.628204 -110.72566 L32.6462 -116.19901 L29.857813 -116.19179 L29.871294 -121.78696 L24.042069 -121.77926 L24.053539 -123.4337 L22.488632 -124.11982 L21.138186 -123.36756 L18.489474 -123.56754 L18.481376 -126.38433 L7.296164 -126.35418 L7.3197697 -121.71313 L7.4934607 -116.11514 L5.6252844 -116.12004 L5.1659077 -105.76555 L8.740609 -104.46318 L10.183316 -103.20465 L12.118489 -99.514502 L13.248794 -99.222693 L14.410163 -97.499321 L15.902525 -97.266669 L18.001948 -97.512826 L19.385839 -99.367815 Z "  class="rgb000000" fill-rule="evenodd" stroke="#6E6E6E" fill-opacity="1" stroke-opacity="1"  stroke-width="0.7" stroke-linecap="round" stroke-linejoin="round" stroke-miterlimit="10" />
</g>
<g transform="matrix(2.2413568 0 0 -2.2408964 429.5 500)">
<path id="feature255" fill="#ffffff" ontouchstart="color(this.id, this.getAttribute('class'))" onclick="color(this.id, this.getAttribute('class'))" d="M-3.592679 -104.86984 L-6.2317669 -105.46582 L-8.2648455 -107.5075 L-7.6663678 -108.07055 L-8.7279095 -109.10405 L-8.1200855 -111.08435 L-8.7230421 -111.72707 L-10.747658 -112.01658 L-12.87871 -113.84943 L-12.628722 -114.27651 L-14.654514 -115.11989 L-14.515057 -115.71874 L-15.062289 -115.35492 L-15.048407 -113.21244 L-20.601318 -113.16314 L-20.56164 -110.34886 L-26.165303 -110.25642 L-26.035449 -93.404949 L-14.825766 -93.576262 L-14.863967 -99.194557 L-3.5692421 -99.242858 L-3.592679 -104.86984 Z "  class="rgb606060" fill-rule="evenodd" stroke="#6E6E6E" fill-opacity="1" stroke-opacity="1"  stroke-width="0.7" stroke-linecap="round" stroke-linejoin="round" stroke-miterlimit="10" />
</g>
<g transform="matrix(2.2413568 0 0 -2.2408964 429.5 500)">
<path id="feature258" fill="#ffffff" ontouchstart="color(this.id, this.getAttribute('class'))" onclick="color(this.id, this.getAttribute('class'))" d="M-13.898101 38.836653 L-14.077172 24.156283 L-39.189469 24.665149 L-39.012934 -5.9376895 L-39.057629 -8.6240626 L-39.714542 -9.390052 L-40.090978 -8.2412774 L-41.478966 -7.3106313 L-41.853532 -7.6889024 L-43.446774 -5.7992267 L-44.964488 -5.8472643 L-48.318887 -7.6145459 L-51.390376 -5.7946931 L-52.227854 -5.9961698 L-53.566282 -4.5476901 L-54.261226 -3.7536046 L-54.610919 -4.4106987 L-56.534869 -4.3362428 L-57.021996 -3.1876056 L-57.023391 -2.1939432 L-57.916166 -2.4935379 L-58.476538 -1.4057173 L-59.114172 -1.4881264 L-58.872235 24.954757 L-53.237867 24.816506 L-52.857052 63.955444 L-41.736669 63.843248 L-41.693169 65.972439 L-40.823531 64.859583 L-40.029792 65.111433 L-37.713597 64.00598 L-28.602707 68.077293 L-27.604162 67.884168 L-24.753909 63.476127 L-25.428318 61.27515 L-24.728625 59.693423 L-22.424942 58.785988 L-19.744673 56.147238 L-18.876402 56.77228 L-18.732966 57.978425 L-18.448099 57.397978 L-16.791659 57.365347 L-16.704759 56.7006 L-15.937464 56.900961 L-15.765503 56.284067 L-15.215742 56.238047 L-15.443328 56.779277 L-13.667513 56.557578 L-14.338455 55.629728 L-13.775493 54.811473 L-14.430428 54.115606 L-14.082505 53.706246 L-15.394704 52.514178 L-14.845305 51.094903 L-13.724 50.509777 L-13.898101 38.836653 Z "  class="rgb202020" fill-rule="evenodd" stroke="#6E6E6E" fill-opacity="1" stroke-opacity="1"  stroke-width="0.7" stroke-linecap="round" stroke-linejoin="round" stroke-miterlimit="10" />
</g>
<g transform="matrix(2.2413568 0 0 -2.2408964 429.5 500)">
<path id="feature261" fill="#ffffff" ontouchstart="color(this.id, this.getAttribute('class'))" onclick="color(this.id, this.getAttribute('class'))" d="M-58.872235 24.954757 L-75.523628 25.423544 L-75.175206 47.871106 L-75.323003 64.681154 L-52.857052 63.955444 L-53.237867 24.816506 L-58.872235 24.954757 Z "  class="rgb606060" fill-rule="evenodd" stroke="#6E6E6E" fill-opacity="1" stroke-opacity="1"  stroke-width="0.7" stroke-linecap="round" stroke-linejoin="round" stroke-miterlimit="10" />
</g>
<g transform="matrix(2.2413568 0 0 -2.2408964 429.5 500)">
<path id="feature264" fill="#ffffff" ontouchstart="color(this.id, this.getAttribute('class'))" onclick="color(this.id, this.getAttribute('class'))" d="M87.358076 -154.59846 L91.821021 -155.56774 L93.635422 -157.12823 L100.38736 -165.84897 L79.558312 -166.23336 L63.275825 -166.43963 L63.079534 -149.67819 L63.029311 -144.13315 L73.283536 -144.00203 L75.643551 -146.14508 L79.689103 -147.94987 L80.369021 -149.64458 L81.582182 -150.04503 L83.181691 -152.16665 L85.812747 -154.23443 L87.358076 -154.59846 Z "  class="rgbBFBFBF" fill-rule="evenodd" stroke="#6E6E6E" fill-opacity="1" stroke-opacity="1"  stroke-width="0.7" stroke-linecap="round" stroke-linejoin="round" stroke-miterlimit="10" />
</g>
</g>
</g>
</svg>
